<?xml version="1.0" encoding="utf-8"?>
<!-- Generator: Adobe Illustrator 16.0.3, SVG Export Plug-In . SVG Version: 6.00 Build 0)  -->
<!DOCTYPE svg PUBLIC "-//W3C//DTD SVG 1.1//EN" "http://www.w3.org/Graphics/SVG/1.1/DTD/svg11.dtd">
<svg version="1.1" id="Ebene_1" xmlns="http://www.w3.org/2000/svg" xmlns:xlink="http://www.w3.org/1999/xlink" x="0px" y="0px"
	 width="492.178px" height="615px" viewBox="0 0 492.178 615" enable-background="new 0 0 492.178 615" xml:space="preserve">
<polygon fill="#19592D" points="129.142,204.336 304.914,53.202 129.142,25.092 "/>
<polygon fill="#136D32" points="247.37,0.124 209.669,37.99 304.914,53.202 304.914,0.124 "/>
<polygon fill="#1D662F" points="149.067,0.124 129.142,25.092 209.669,37.99 247.37,0.124 "/>
<polygon fill="#196E33" points="233.397,114.714 318.389,195.572 403.381,195.572 348.898,114.714 "/>
<polygon fill="#19602F" points="233.397,114.714 348.898,114.714 304.914,53.202 "/>
<polygon fill="#156B30" points="233.397,227.155 233.397,114.714 129.142,204.336 "/>
<polygon fill="#18632F" points="233.397,227.155 318.389,195.572 233.397,114.714 "/>
<polygon fill="#268437" points="198.5,278.25 233.397,227.155 129.142,204.336 "/>
<polygon fill="#77B964" points="403.381,195.572 427.938,95.368 348.898,114.714 "/>
<polygon fill="#74B763" points="364.937,0.124 304.914,53.202 348.898,114.714 368.575,47.084 382.381,0.124 "/>
<polygon fill="#76BA68" points="348.898,114.714 427.938,95.368 371.303,37.99 "/>
<polygon fill="#A8CE8D" points="382.381,0.124 371.303,37.99 427.938,95.368 450.838,37.99 410.575,0.124 "/>
<polygon fill="#208439" points="304.914,0.124 304.914,53.202 342.036,0.124 "/>
<polygon fill="#256E30" points="342.036,0.124 304.914,53.202 364.937,0.124 "/>
<polygon fill="#16532A" points="129.142,0.124 129.142,25.092 154.11,0.124 "/>
<polygon fill="#1B8037" points="304.914,299.25 318.389,195.572 233.397,227.155 "/>
<polygon fill="#4FAC33" points="427.938,95.368 403.381,195.572 477.129,163.99 "/>
<polygon fill="#DEEACD" points="450.838,37.99 427.938,95.368 477.129,163.99 492.178,158.616 492.178,40.47 491.186,37.328 "/>
<polygon fill="#CBDFBD" points="410.575,0.124 450.838,37.99 491.186,37.328 465.225,0.124 "/>
<polygon fill="#19602E" points="403.381,195.572 461.338,236.002 477.129,163.99 "/>
<polygon fill="#268E37" points="403.381,195.572 318.389,195.572 419.586,269.403 461.338,236.002 "/>
<polygon fill="#459C35" points="304.914,299.25 419.586,269.403 318.389,195.572 "/>
<polygon fill="#1F3F21" points="129.142,204.336 129.142,25.092 21.992,62.049 "/>
<polygon fill="#154F28" points="29.929,0.124 21.992,62.049 129.142,25.092 129.142,0.124 "/>
<polygon fill="#1D5A2C" points="90.531,269.403 129.142,204.336 75.567,195.572 "/>
<polyline fill="#256C30" points="90.531,314.876 129.142,204.336 90.531,269.403 90.531,314.876 "/>
<polygon fill="#398936" points="90.531,314.876 198.5,278.25 129.142,204.336 "/>
<polygon fill="#338C36" points="198.5,278.25 304.914,299.25 233.397,227.155 "/>
<polygon fill="#458E36" points="461.338,236.002 492.178,266.84 492.178,187.14 477.129,163.99 "/>
<polygon fill="#74B856" points="477.129,163.99 492.178,187.14 492.178,158.616 "/>
<polygon fill="#1B8137" points="419.586,269.403 481.869,288.179 492.178,266.84 461.338,236.002 "/>
<g>
	<g>
		<g>
			<g>
				<defs>
					<rect id="SVGID_1_" y="0.124" width="492.178" height="314.752"/>
				</defs>
				<clipPath id="SVGID_2_">
					<use xlink:href="#SVGID_1_"  overflow="visible"/>
				</clipPath>
				<path clip-path="url(#SVGID_2_)" fill="#A7CF9F" d="M512.35,107.687l22.902-4.217c-4.547-25.795-12.484-50.35-23.314-73.334
					l-20.588,7.192L512.35,107.687z"/>
			</g>
		</g>
	</g>
	<g>
		<g>
			<g>
				<defs>
					<rect id="SVGID_3_" y="0.124" width="492.178" height="314.752"/>
				</defs>
				<clipPath id="SVGID_4_">
					<use xlink:href="#SVGID_3_"  overflow="visible"/>
				</clipPath>
				<path clip-path="url(#SVGID_4_)" fill="#BAD2B2" d="M491.186,37.328l20.586-7.192c-15.131-31.996-35.883-60.851-61.016-85.24
					v34.394L491.186,37.328z"/>
			</g>
		</g>
	</g>
	<g>
		<g>
			<g>
				<defs>
					<rect id="SVGID_5_" y="0.124" width="492.178" height="314.752"/>
				</defs>
				<clipPath id="SVGID_6_">
					<use xlink:href="#SVGID_5_"  overflow="visible"/>
				</clipPath>
				<path clip-path="url(#SVGID_6_)" fill="#18632F" d="M34.228-33.774l-17.693,8.269C6.614-12.939-2.232,0.372-9.921,14.427
					l31.913,47.539L34.228-33.774z"/>
			</g>
		</g>
	</g>
	<g>
		<g>
			<g>
				<defs>
					<rect id="SVGID_7_" y="0.124" width="492.178" height="314.752"/>
				</defs>
				<clipPath id="SVGID_8_">
					<use xlink:href="#SVGID_7_"  overflow="visible"/>
				</clipPath>
			</g>
		</g>
	</g>
	<g>
		<g>
			<g>
				<defs>
					<rect id="SVGID_9_" y="0.124" width="492.178" height="314.752"/>
				</defs>
				<clipPath id="SVGID_10_">
					<use xlink:href="#SVGID_9_"  overflow="visible"/>
				</clipPath>
			</g>
		</g>
	</g>
</g>
<polygon fill="#4F9534" points="198.5,278.25 236.83,404.498 304.914,299.25 304.914,299.25 "/>
<g>
	<g>
		<g>
			<g>
				<defs>
					<rect id="SVGID_11_" y="0.124" width="492.178" height="314.752"/>
				</defs>
				<clipPath id="SVGID_12_">
					<use xlink:href="#SVGID_11_"  overflow="visible"/>
				</clipPath>
			</g>
		</g>
	</g>
</g>
<polygon fill="#2C632F" points="0,245.262 92.562,387.268 90.531,314.876 90.531,269.403 0,224.014 "/>
<polygon fill="#255E2E" points="0,212.604 0,224.014 90.531,269.403 78.047,207.644 "/>
<g>
	<g>
		<g>
			<g>
				<defs>
					<rect id="SVGID_13_" y="0.124" width="492.178" height="314.752"/>
				</defs>
				<clipPath id="SVGID_14_">
					<use xlink:href="#SVGID_13_"  overflow="visible"/>
				</clipPath>
			</g>
		</g>
	</g>
	<g>
		<g>
			<g>
				<defs>
					<rect id="SVGID_15_" y="0.124" width="492.178" height="314.752"/>
				</defs>
				<clipPath id="SVGID_16_">
					<use xlink:href="#SVGID_15_"  overflow="visible"/>
				</clipPath>
				<path clip-path="url(#SVGID_16_)" fill="#285526" d="M-0.414,311.981c10.831,17.032,23.315,32.906,37.37,47.292l22.075-22.488
					L-0.414,311.981z"/>
			</g>
		</g>
	</g>
	<g>
		<g>
			<g>
				<defs>
					<rect id="SVGID_17_" y="0.124" width="492.178" height="314.752"/>
				</defs>
				<clipPath id="SVGID_18_">
					<use xlink:href="#SVGID_17_"  overflow="visible"/>
				</clipPath>
				<path clip-path="url(#SVGID_18_)" fill="#203B20" d="M21.992,62.049L-9.921,14.51c-16.122,29.433-27.449,61.925-32.658,96.401
					l37.866,20.587L21.992,62.049z"/>
			</g>
		</g>
	</g>
	<g>
		<g>
			<g>
				<defs>
					<rect id="SVGID_19_" y="0.124" width="492.178" height="314.752"/>
				</defs>
				<clipPath id="SVGID_20_">
					<use xlink:href="#SVGID_19_"  overflow="visible"/>
				</clipPath>
				<path clip-path="url(#SVGID_20_)" fill="#427D32" d="M-42.579,110.994c-2.149,14.386-3.307,29.185-3.307,44.149
					c0,20.586,2.15,40.677,6.201,60.023l168.909-10.748L-42.579,110.994z"/>
			</g>
		</g>
	</g>
</g>
<polygon fill="#29602D" points="0,118.931 0,134.061 129.142,204.336 22.075,60.644 "/>
<g>
	<g>
		<g>
			<g>
				<defs>
					<rect id="SVGID_21_" y="0.124" width="492.178" height="314.752"/>
				</defs>
				<clipPath id="SVGID_22_">
					<use xlink:href="#SVGID_21_"  overflow="visible"/>
				</clipPath>
			</g>
		</g>
	</g>
</g>
<polygon fill="#156B30" points="341.085,427.317 304.914,299.25 236.83,404.498 "/>
<polygon fill="#18632F" points="341.085,427.317 426.076,395.734 304.914,299.25 "/>
<polygon fill="#268437" points="324.715,513.467 341.085,427.317 236.83,404.498 "/>
<polygon fill="#1B8037" points="412.602,499.412 426.076,395.734 341.085,427.317 "/>
<polygon fill="#338C36" points="324.715,513.467 412.602,499.412 341.085,427.317 "/>
<polygon fill="#268E37" points="419.586,269.403 304.914,299.25 304.914,299.25 481.869,288.179 "/>
<polygon fill="#4FAC33" points="481.869,288.179 304.914,299.25 426.076,395.734 "/>
<polygon fill="#458E36" points="426.077,395.734 492.938,428.667 492.938,266.84 426.077,395.734 "/>
<polygon fill="#268E37" points="426.076,395.734 412.602,499.412 500.5,553.25 492.938,428.667 "/>
<polygon fill="#256C30" points="91.327,314.876 166.795,363.283 237.625,406.069 237.625,406.069 198.5,278.25 "/>
<path fill="#274322" d="M90.531,387.268l-113.847-3.014C-16.04,419.226-61.52,403.232-43,432.5l30,44L90.531,387.268z"/>
<path fill="#203B20" d="M-2.5,238.523l-60.421,28.316C-79.043,296.272-81.791,355.023-87,389.5l179.562-2.232L-2.5,238.523z"/>
<polygon fill="#29602D" points="92.562,387.268 92.562,387.268 236.83,404.498 90.531,314.876 "/>
<polygon fill="#1D5A2C" points="92.827,385.698 239.125,404.5 2.295,463.003 "/>
<polygon fill="#29602D" points="-6.5,463.003 -6.5,463.003 324.715,513.467 236.83,404.498 "/>
<polygon fill="#19592D" points="0,642.247 175.772,491.113 0,463.003 "/>
<polygon fill="#196E33" points="104.256,552.625 189.248,633.483 274.24,633.483 219.756,552.625 "/>
<polygon fill="#19602F" points="104.256,552.625 219.756,552.625 175.772,491.113 "/>
<polygon fill="#156B30" points="104.256,665.066 104.256,552.625 0,642.247 "/>
<polygon fill="#18632F" points="104.256,665.066 189.248,633.483 104.256,552.625 "/>
<polygon fill="#1B8037" points="327.981,619.478 324.715,513.467 175.772,491.113 "/>
<polygon fill="#268E37" points="412.602,499.412 324.715,513.467 492.178,615 504.834,553.25 "/>
<polygon fill="#459C35" points="327.981,617.145 492.178,615 324.715,513.467 "/>
<polygon fill="#338C36" points="274.24,633.483 327.981,617.145 175.772,491.113 "/>
</svg>
