<?xml version="1.0" encoding="utf-8"?>
<!-- Generator: Adobe Illustrator 18.1.1, SVG Export Plug-In . SVG Version: 6.00 Build 0)  -->
<svg version="1.1" id="Ebene_1" xmlns="http://www.w3.org/2000/svg" xmlns:xlink="http://www.w3.org/1999/xlink" x="0px" y="0px"
	 viewBox="0 0 351.1 80.1" enable-background="new 0 0 351.1 80.1" xml:space="preserve">
<g>
	<path fill="#E6007E" d="M48.5,39.2l0-0.1c0,0,0.3,0.9,0,3.1c0,0.1-0.3,2.2-1.9,4c-0.9,1-5.3,5-6,5.4c-9.2,6.5-15.2,8.6-17.3,9.7
		c-2.4,1.1-4,1.5-5.4,2c-4.5,1.7-7.7,2.6-9.8,2.8c-0.4,0-0.9-0.1-1.7-0.4c-0.8-0.3-1.3-0.6-1.6-0.9c-0.3-0.3-0.5-0.8-0.5-1.4
		c-0.1-0.6,0.5-1.2,1.8-1.9c0,0,0.1,0,0.3,0c0.1,0.1,0.2,0.1,0.2,0.1c0.2,0,0.5-0.1,0.8-0.4c1.3-0.3,2.4-0.5,3.1-0.7
		c1.1-0.3,1.9-0.6,2.5-0.9c-1.2-5.6-1.8-8.9-1.9-9.7c0,0,0,0,0,0c0-0.1,0-1.5,0.1-4c0.1-3.2,0.1-5.2,0-6.2c0-0.2,0.1-0.4,0.3-0.7
		c-0.1-0.2-0.1-0.3-0.2-0.5c0-0.1,0-0.3,0-0.5c0-0.1,0.2-1.2,0.5-3.3c0.2-0.1,0.4-0.2,0.7-0.4c-0.4-0.2-0.8-0.3-1.1-0.3
		c-0.1,0-1.6,0.5-4.5,1.4l-4.5,1.4c-0.4,0-0.9-0.2-1.5-0.8c-0.5-0.5-0.8-0.8-0.8-1c-0.1-0.7,0.4-1.4,1.5-2.2
		c0.4-0.3,1.8-0.8,4.1-1.7c3.1-1.1,5.3-1.8,6.7-1.9l15-1.3c0,0,0.5,0.1,1.3,0.2C29.5,28,30,28,30.1,28c1.3,0,2.5,0,3.6,0.1
		c2.3,0.2,4.8,1,7.5,2.4c2.9,1.5,4.7,3.1,5.5,4.7c0.2,0.4,0.5,1,0.9,1.8C48.2,38.2,48.5,38.9,48.5,39.2z M44.4,40.3
		c-0.3-1.4-0.4-2.1-0.4-2.2c-0.1,0-0.2-0.1-0.2-0.2c-0.4-1.3-1.8-2.7-4.1-4.1c-1.5-0.9-3-1.4-4.6-1.7c-2.3-0.4-6.1-0.5-11.4-0.4
		c-0.5-0.1-0.8-0.2-0.8-0.2c-0.2,0-0.5,0.1-0.8,0.4c-2.7,0.2-5.5,0.7-8.5,1.3c0,0.4,0.2,0.7,0.5,1.1c0.3,0.2,0.6,0.4,1,0.7
		c0.4,0.9,0.6,1.8,0.7,2.5c0,0,0,0.1,0,0.1c0,0.3,0,1.6-0.1,3.9c-0.1,2.8-0.1,4.7-0.1,5.8l0.3,6.9c0,0.1,0.3,1.3,0.9,3.6
		c0.4,0.1,0.6,0.1,0.7,0.1c0.7-0.1,3.6-1.3,8.6-3.7c4.3-2,7.2-3.5,8.9-4.5c2.8-1.6,5.5-3.8,8-6.4C43.9,42.3,44.5,41.2,44.4,40.3z"/>
	<path fill="#E6007E" d="M70.8,58.4c0,0.5-0.1,1-0.3,1.4c-0.3,0.4-0.6,0.7-1,0.7c-0.6-0.1-2.2-0.7-5-1.8c-1.6-0.7-2.4-1-2.6-1.1
		c-0.6,0.1-1.4,0.4-2.4,0.9c-1.4,0.8-2.2,1.2-2.4,1.3c-0.9,0.4-1.8,0.6-2.8,0.7c-1.2,0.1-2.7-0.6-4.6-2c-0.7-0.8-1-1.5-1.1-2.2
		c-0.1-0.9,0.1-2.1,0.6-3.6c0.1-0.4,0.5-0.7,1.1-1.1l1.3-0.7c2.9-2.1,5.6-3.3,8.1-3.5c0.7-0.1,1.7,0.1,2.9,0.4
		c0.3,0.1,0.8,0.5,1.4,1.4C64.7,50,65,50.6,65,51c0.1,0.7-0.3,1.4-1.1,2c-1.8-0.8-3.2-1.2-4.2-1.1c-1,0.1-2.1,0.4-3.2,1.1
		c-1.3,0.8-2.4,1.6-3.1,2.4c0.1,0.4,0.7,0.6,1.6,0.5c-0.1,0-0.1,0-0.1,0c0-0.1,0.9-0.5,2.7-1.3c2.2-0.9,3.8-1.4,4.9-1.5
		c0.3,0,1.4,0.6,3.4,2c2.1,1.5,3.6,2.4,4.4,2.7C70.6,58.1,70.8,58.3,70.8,58.4z"/>
	<path fill="#E6007E" d="M92,52.4c0,0.2-0.2,0.6-0.7,1.1c-0.5,0.5-1,0.8-1.5,1c-0.9,0.4-2.7,1.1-5.4,2.2c-3,1.2-5.3,1.9-6.8,2
		c0,0-0.3,0-0.9-0.1c-0.6-0.1-0.9-0.1-0.9-0.1c-0.1,0-0.6,0.2-1.5,0.5c-0.2,0-0.6-0.2-1-0.7c-0.4-0.5-0.7-0.8-0.7-1.1
		c0-0.1,0.2-0.4,0.6-1.1l6.4-1.8c2.7-0.7,4.6-1.5,5.6-2.2c0-0.1,0-0.2-0.1-0.3c-0.5-0.3-2.1-0.9-4.8-1.7c-2.8-0.9-4.4-1.4-4.8-1.6
		c-0.5-0.1-1.4-0.5-2.5-1.1c-0.3-0.3-0.5-0.9-0.6-1.8c0,0.1,0,0.1,0,0.1c0,0-0.1-0.1-0.2-0.3c0-0.1-0.1-0.2-0.1-0.3
		c-0.1-0.6,0.6-1.2,1.9-1.8c1.6-0.8,3.9-1.6,7.1-2.4c3.2-0.8,5.8-1.3,7.9-1.5c0.6,0,0.9,0,1.1,0.2c0.9,0.9,1.4,1.5,1.4,1.9
		c0.1,0.8-0.2,1.4-0.7,1.7c-0.5,0.2-2.6,0.6-6.3,1.4c-0.7,0.4-1.1,0.5-1.2,0.5c0,0-0.2,0-0.4-0.1c-0.2,0-0.4-0.1-0.4-0.1
		c-0.8,0.1-1.7,0.4-2.6,1c0.2,0.4,0.6,0.6,1.1,0.8c0.5,0,1.5,0.2,3,0.5c0.4,0.1,1.2,0.3,2.4,0.6l0.3,0.1c0.2,0.1,0.9,0.3,2.1,0.7
		c0.7,0.2,1.4,0.7,2,1.3c0.2,0.2,0.5,0.7,0.7,1.5c0,0,0.1,0.2,0.3,0.4C91.9,52.1,92,52.3,92,52.4z"/>
	<path fill="#E6007E" d="M146.5,34.5c0.1,0.8,0,1.3-0.2,1.7c0.2,0.7,0.4,1.4,0.5,2.1c0.1,0.8-0.2,3.2-0.7,7.2
		c-0.3,1.7-0.9,3.2-2,4.5c-1.6,2-4.5,3.1-8.6,3.5c-4,0.3-7.9-0.2-11.5-1.7c-2-0.8-4.1-2.1-6.3-3.9c-0.9-0.8-1.4-1.6-1.5-2.5
		c0-0.4,0.3-1,1.1-1.8l0.7-0.1c0.5,0.8,1.1,1.4,1.8,1.7c0.6,0.2,1.5,0.6,2.8,1.1c1,0.5,2.6,1.2,4.8,1.9c1.9,0.4,3.5,0.6,4.7,0.4
		c0.1,0,0.3,0,0.4,0c0.1,0,0.4,0,0.8-0.1c0.5,0,1.1-0.1,2-0.2l2.8-0.3c0.6-0.1,1.3-0.5,2.1-1.4c0.3-0.3,0.7-1.1,1.3-2.5l0.4-0.6
		c0.5-2,0.8-3.4,0.8-4.2c0-0.5,0.1-1.6,0.2-3.3l-0.3-3.9c-0.2-1.8-0.7-4.7-1.6-9c0,0-0.3-0.5-0.8-1.3c-0.4-0.6-0.6-1.1-0.6-1.5
		c-0.1-0.7,0-1.1,0.2-1.3l1.7-1.5c1,0.5,1.9,2,2.8,4.5c0.3,0.9,0.8,3.1,1.4,6.6C146.2,32,146.5,33.9,146.5,34.5z"/>
	<path fill="#E6007E" d="M176.6,34.6c0.1,0.9,0,1.7-0.1,2.2c-0.3,1.1-0.7,2.2-1.1,3.6c-0.1,0.1-0.3,0.2-0.4,0.4
		c-0.1,0.5-0.4,1.1-0.9,1.9l-1.3,1.8c0,0.1-0.1,0.3-0.1,0.5c-1.3,1.6-3.2,3.1-5.6,4.6c-2.3,0.9-4,1.4-5.1,1.5
		c-0.7,0.1-1.7-0.1-3-0.3c-5-1.1-7.8-4.3-8.3-9.7c-0.2-1.9,0.3-3.6,1.4-5.2l1.1-0.1c0.9,0.6,1.5,1.5,1.6,2.9c0,0.1,0,0.5,0,1.4
		s0,1.4,0.1,1.5c0.2,2.4,1.7,3.9,4.3,4.4c1,0.2,1.4,0.3,1.4,0.3c0,0,0,0,0,0c0,0,0.3,0,0.7-0.1c0.5-0.1,0.7-0.1,0.8-0.1
		c1.4-0.1,3.2-1.1,5.5-2.9c1.4-1.1,2.7-2.6,3.9-4.6c1.3-2,2-3.5,2.1-4.7c0-0.2,0.3-0.6,0.7-1c0.5-0.5,0.8-0.7,1-0.7
		C176,32,176.4,32.8,176.6,34.6z"/>
	<path fill="#E6007E" d="M204.3,36.9c0.2,1.8-1.3,3.8-4.4,6.1c-2.7,2-4.9,3.2-6.7,3.4c-0.2,0.2-0.5,0.4-0.9,0.6
		c-0.5,0.3-1.6,0.6-3.3,1.1c-3.8,1.1-6.1,1.7-6.8,1.8c-0.4,0-0.9-0.1-1.3-0.5c-0.5-0.4-0.7-0.8-0.7-1.2c0-0.2,0.3-0.6,1-1.1l1.1-0.8
		c0-0.2-0.3-0.7-0.9-1.6c-0.4-0.5-0.6-1.1-0.6-1.8c0-0.1,0-0.8,0.1-2c0.1-1.2,0.1-1.9,0.1-2c0-0.5-0.4-1-1.2-1.6
		c0-0.1-0.1-0.4-0.3-0.9c-0.2-0.5-0.3-0.8-0.3-0.9c0-0.5,0.6-1.2,2-2.2c0-0.9,0-1.7,0.1-2.5c0.4-4.8,1.1-9,1.9-12.8
		c0.2-0.9,0.9-1.6,2-2c0.6,0.3,1.3,1.4,2.2,3.3c0,0.2-0.2,0.8-0.4,1.9c-0.3,1.2-0.5,2.1-0.6,2.6c0,0.7,0,2.1-0.1,4.1
		c0,0.1-0.1,0.7-0.3,1.7s-0.3,1.5-0.3,1.5c0.1,0.7,0.8,1,2.1,0.9c5.1-0.4,9.1-0.4,12.1,0.2c1,0.2,2,0.8,3,1.8
		C203.7,35.1,204.2,36.1,204.3,36.9z M200.2,37.2c-0.1-0.8-1.5-1.3-4.3-1.5c-2-0.2-3.8-0.2-5.4-0.1c-1.1,0.3-1.7,0.5-1.9,0.5l0,0
		c-0.7,0-1.2,0-1.6,0c-0.2,0-0.4,0-0.5,0.1c-0.8,0.2-1.3,0.7-1.4,1.3c0,0.2,0,0.6-0.1,1.4c-0.3,2.8-0.4,4.2-0.5,4.2c0,0,0,0,0-0.1
		c0.6,1.5,0.9,2.3,1,2.6l0.8-0.1c0.9-0.5,2-0.9,3.3-1.4c2.3-0.9,4.6-2,7-3.4C199.1,39.2,200.3,38.1,200.2,37.2z"/>
	<path fill="#E6007E" d="M211.2,34c0.1,0.2,0.4,3.6,1.2,10.2c0,0,0,0,0,0c0,0.3-0.1,1-0.3,2.3l-0.5,0.2c0,0,0,0-0.1,0
		c-0.3,0-0.9-0.1-1.9-0.4c0,0,0-0.1,0-0.2c0-0.3-0.2-0.7-0.6-1.1c-0.5-0.7-0.9-1.1-0.9-1.3c0,0,0-0.1,0-0.3c0-0.4-0.1-1.3-0.1-2.6
		c0-2.7,0.1-5.1,0.4-7.3c0.3-0.5,0.8-0.8,1.4-0.9C210.3,32.7,210.8,33.1,211.2,34z M211.7,24.3c0,0.4-0.3,1-1.1,2.1
		c-1.4-0.3-2.2-0.8-2.2-1.6c-0.1-0.7,0.1-1.6,0.6-2.7c0.3-0.1,0.9-0.2,1.8-0.4C211.4,22.6,211.6,23.5,211.7,24.3z"/>
	<path fill="#E6007E" d="M224,12.2l0.4,4.1c-0.3,1.6-0.6,4.2-0.9,7.9c0,0.6-0.3,2.4-0.9,5.3c0.1,0.3,0.1,0.7,0.2,1.3
		c-0.2,1.1-0.3,2.7-0.5,4.8c0,0.8,0.1,1.5,0.1,2.2c0.2,1.8,0.4,3,0.6,3.8c-0.1,0.2-0.1,0.4-0.2,0.7c0.4,0.3,0.6,0.7,0.6,1.2
		c0.1,0.6-0.1,1.2-0.4,1.8c-0.3,0.5-0.7,0.8-1.2,0.9c-0.3,0-0.7-0.1-1.3-0.5c-0.6-0.3-1-0.7-1.2-1c-0.1-0.1-0.2-1-0.5-2.7
		c-0.3-0.3-0.4-0.4-0.4-0.5l-0.4-5.1l1.3-19.8c0.2-1,0.2-1.5,0.2-1.7l0,0c0-0.2-0.1-0.5-0.3-1.2l-0.2-1l1-2.6l0.5-0.4
		c0.5,0,1.1,0.3,2,1C223.5,11.2,224,11.7,224,12.2z"/>
	<path fill="#E6007E" d="M249.3,43.1c0,0.5-0.1,0.9-0.3,1.4s-0.6,0.7-0.9,0.7c-0.5-0.1-2.1-0.7-4.7-1.8c-1.5-0.6-2.3-1-2.5-1
		c-0.6,0-1.3,0.3-2.3,0.9c-1.3,0.7-2.1,1.1-2.3,1.2c-0.9,0.4-1.7,0.6-2.6,0.7c-1.1,0.1-2.6-0.5-4.4-1.9c-0.6-0.8-1-1.5-1-2.1
		c-0.1-0.8,0.1-2,0.5-3.5c0.1-0.3,0.5-0.7,1.1-1.1l1.2-0.7c2.7-2,5.3-3.1,7.7-3.3c0.7-0.1,1.6,0.1,2.7,0.4c0.3,0.1,0.8,0.5,1.3,1.3
		c0.5,0.8,0.8,1.3,0.9,1.7c0.1,0.7-0.3,1.3-1,1.9c-1.7-0.8-3.1-1.1-4-1.1c-1,0.1-2,0.4-3,1c-1.3,0.7-2.3,1.5-3,2.3
		c0.1,0.4,0.6,0.6,1.5,0.5c-0.1,0-0.1,0-0.1,0c0-0.1,0.9-0.5,2.6-1.2c2.1-0.8,3.6-1.3,4.6-1.4c0.3,0,1.4,0.6,3.2,1.9
		c2,1.4,3.4,2.3,4.2,2.6C249.1,42.7,249.3,42.9,249.3,43.1z M235.2,29.7c0,0.5-0.1,1-0.5,1.5c-0.4,0.5-0.9,0.7-1.4,0.8
		c-0.6,0-1.1-0.1-1.6-0.5c-0.5-0.4-0.8-0.8-0.8-1.3c-0.1-0.9,0.2-1.6,0.9-2.3c0.5,0.1,1.1,0.3,1.9,0.5
		C234.6,28.7,235.1,29.1,235.2,29.7z M243.5,29.9c0.1,1-0.3,1.6-1.3,1.6c-1.4,0.1-2.2-0.6-2.3-2.2c-0.1-0.8-0.1-1.3,0-1.7l1.4-0.1
		C242.6,27.4,243.3,28.2,243.5,29.9z"/>
	<path fill="#E6007E" d="M275,26.1c0.1,0.9,0,1.7-0.1,2.2c-0.3,1.1-0.7,2.2-1.1,3.6c-0.1,0.1-0.3,0.2-0.4,0.4
		c-0.1,0.5-0.4,1.1-0.9,1.9l-1.3,1.8c0,0.1-0.1,0.3-0.1,0.5c-1.3,1.6-3.2,3.1-5.6,4.6c-2.3,0.9-4,1.4-5.1,1.5
		c-0.7,0.1-1.7-0.1-3-0.3c-5-1.1-7.8-4.3-8.3-9.7c-0.2-1.9,0.3-3.6,1.4-5.2l1.1-0.1c0.9,0.6,1.5,1.5,1.6,2.9c0,0.1,0,0.5,0,1.4
		s0,1.4,0.1,1.5c0.2,2.4,1.7,3.9,4.3,4.4c1,0.2,1.4,0.3,1.4,0.3c0,0,0,0,0,0c0,0,0.3,0,0.7-0.1c0.5-0.1,0.7-0.1,0.8-0.1
		c1.4-0.1,3.2-1.1,5.5-2.9c1.4-1.1,2.7-2.6,3.9-4.6c1.3-2,2-3.5,2.1-4.7c0-0.2,0.3-0.6,0.7-1c0.5-0.5,0.8-0.7,1-0.7
		C274.4,23.5,274.8,24.4,275,26.1z"/>
	<path fill="#E6007E" d="M320.1,39.4c-0.1,0-0.3,0.1-0.9,0.2c-0.5,0.1-0.8,0.2-0.8,0.2c-0.6,0-1.2-0.3-2-1c0,0,0-0.1,0-0.1
		c0-0.2-0.1-0.4-0.2-0.7c-0.8-1.2-1.4-3.8-1.9-7.9c-0.1-0.1-0.3-0.3-0.5-0.4c-1.7,0.2-3.9,1.5-6.5,4l-6.1,5.6
		c-0.4,0.3-0.9,0.5-1.7,0.6c-1.8,0.2-2.8-0.4-3.1-1.7c0-0.1,0-0.1,0-0.3c0-0.4-0.1-1.3-0.1-2.6c0-1.6-0.1-3-0.2-4.1
		c-0.1-1.2-0.3-2.2-0.5-3.1c-0.2-0.3-0.5-0.4-0.8-0.4c-0.6,0.1-1.8,0.9-3.5,2.5c-0.5,0.5-1.5,1.5-2.9,2.9c-0.5,0.6-1.4,1.6-2.8,3.2
		c-1.7,2-3,3-3.8,3c-0.5,0-1.1-0.3-1.8-1.1c-0.6-0.7-0.9-1.1-0.9-1.3c-0.1-1,0-2.5,0.3-4.7c0.4-2.8,1-4.3,1.8-4.4
		c0.8-0.1,1.4,0.3,1.9,1l1.1,1.7c1.2-1.1,2.7-2.4,4.5-3.8c2.8-2.3,4.9-3.6,6.2-3.7c1-0.1,2.1,0.5,3.4,1.8c1,1,1.6,1.7,1.7,2
		c0.4,1.6,0.7,3.2,0.9,4.7c0,0.2,0,0.5,0.1,0.7c0.1,0.1,0.2,0.1,0.4,0.1c0.5,0,1.2-0.5,2.1-1.5c0.6-0.4,2.6-1.9,6-4.5
		c1.7-1,3.5-1.6,5.3-1.7c0.2,0,0.4,0,0.6-0.1c0.3,0.5,0.7,0.8,1.2,1c0.7,0.7,1.4,1.7,2.3,3.1c0.2,0.6,0.3,1.4,0.3,2.3
		c0.1,0.9,0.1,1.9,0.1,3.1c0,0.2,0,0.5,0,0.7c0.1,0.6,0.2,1.3,0.4,2.1C319.9,38,320.1,38.9,320.1,39.4z"/>
	<path fill="#E6007E" d="M327.2,35.4c0.1,1.6-0.3,2.4-1.4,2.5c-0.4,0-0.9-0.3-1.6-1c-0.7-0.7-1-1.2-1.1-1.6
		c-0.1-0.9,0.5-1.4,1.9-1.5c0.3,0,0.8,0.2,1.4,0.6C326.8,34.7,327.1,35.1,327.2,35.4z M329.4,2.7c-0.1,1.1-0.3,2.3-0.5,3.8
		c-0.4,2.5-0.6,4.5-0.8,5.8c-0.1,0.7-0.2,2-0.4,4c0,0.9-0.1,2.8-0.2,5.5c0,0.3-0.2,1.9-0.5,4.7c0.1,0.7,0.1,1.7,0.2,3.1
		c0,0.2-0.2,0.4-0.5,0.7c-0.3,0.3-0.6,0.4-0.8,0.4c-1.4,0.1-2.2-1-2.4-3.2c0.2-2,0.2-3.3,0.2-3.9c0-0.5-0.1-1.2-0.1-2.1
		c0.2-1.4,0.3-3.6,0.5-6.9c0.6-2.9,1-5.2,1.2-6.8c0.1-1.1,0.3-3.2,0.6-6.4c0.1-0.8,0.5-1.2,1.1-1.3c0.2,0,0.5,0,0.7,0.1
		c0.2,0.4,0.7,0.8,1.4,1.2c0,0,0.1,0.3,0.2,0.6C329.4,2.4,329.4,2.6,329.4,2.7z"/>
</g>
<g>
	<g>
		<path fill="#E6007E" d="M21.6,80.1c84.9-14.7,171.2-20.8,257.3-21.5c23.7-0.2,47.3,0,71,0.7c1.6,0,1.6-2.5,0-2.5
			c-86.3-2.3-172.9,0.5-258.6,10.6c-23.6,2.8-47,6.2-70.4,10.2C19.3,78,20,80.4,21.6,80.1L21.6,80.1z"/>
	</g>
</g>
</svg>
