<?xml version="1.0" encoding="utf-8"?>
<!-- Generator: Adobe Illustrator 18.1.1, SVG Export Plug-In . SVG Version: 6.00 Build 0)  -->
<svg version="1.1" id="Ebene_1" xmlns="http://www.w3.org/2000/svg" xmlns:xlink="http://www.w3.org/1999/xlink" x="0px" y="0px"
	 viewBox="0 43.8 460 172.6" enable-background="new 0 43.8 460 172.6" xml:space="preserve">
<g>
	<polygon fill="#156D32" points="103.3,100 103.3,67.4 75.3,95.5 	"/>
	<polygon fill="#407D33" points="51.5,91.8 75.3,95.5 103.3,67.4 72.8,70.5 	"/>
	<path fill="#1B6F34" d="M51.5,91.8v26.1c3.9-1.9,8.3-3,13.6-3c6.3,0,11.5,1.7,15.6,4.5l22.6-19.4L51.5,91.8z"/>
	<path fill="#1B6F34" d="M51.5,131.4v13.2l19.2-16.4c-2-1.2-4.5-1.9-7.4-1.9C58.9,126.3,55,128.4,51.5,131.4z"/>
	<polygon fill="#19612F" points="115,116.3 103.3,100 82.3,118.1 111.2,118.1 111.4,116.3 	"/>
	<path fill="#166C30" d="M82.3,118.1l-1.5,1.3c0.5,0.4,1.1,0.7,1.5,1.2C82.3,120.6,82.3,118.1,82.3,118.1z"/>
	<path fill="#166C30" d="M70.7,128l-19.2,16.4l22.2,4.8c1.7-3.3,2.5-6.5,2.5-9.5C76.4,134.4,74.4,130.3,70.7,128z"/>
	<path fill="#17622F" d="M107.3,141.9l-25.1-23.8v2.5c5,4.3,7.9,10.6,7.9,18.6c0,3.3-0.7,6.5-2,9.9L107.3,141.9z"/>
	<path fill="#278437" d="M77.4,176.6L80,163c-2,2.7-4.4,5.6-6.9,8.4L77.4,176.6z"/>
	<path fill="#278437" d="M51.5,144.5l13.8,17.1c3.7-4.4,6.6-8.5,8.4-12.3L51.5,144.5z"/>
	<polygon fill="#76B863" points="123.8,129.2 132.3,141.9 135.6,128.4 123.8,128.4 	"/>
	<polygon fill="#76B863" points="139.6,112.4 123.4,116.3 138.7,116.3 	"/>
	<polygon fill="#5AA052" points="122.1,98.1 127.9,78.3 103.3,100 115,116.3 116.8,116.3 	"/>
	<polygon fill="#75B968" points="139.6,112.4 123,95.5 116.8,116.3 123.4,116.3 	"/>
	<polygon fill="#A7CD8D" points="123,95.5 139.6,112.4 146.4,95.5 127.9,78.3 	"/>
	<polygon fill="#238338" points="103.3,100 127.9,64.8 103.3,67.4 	"/>
	<polygon fill="#75B968" points="127.9,78.3 127.9,64.8 103.3,100 	"/>
	<polygon fill="#85C283" points="68.1,70.9 103.3,67.4 86.3,57 	"/>
	<polygon fill="#1B6F34" points="51.5,58.8 51.5,91.8 86.3,57 55,57 	"/>
	<polygon fill="#74B757" points="103.3,67.4 103.3,53.9 68.9,48.7 	"/>
	<polygon fill="#5AA052" points="103.3,53.9 103.3,67.4 127.9,64.8 119.9,51.3 	"/>
	<path fill="#5E9A55" d="M103.3,53.9L85.1,43.8c-3.9,0-7.7,0.4-11.3,0.8l-7.2,4.3L103.3,53.9z"/>
	<polygon fill="#7FAD7A" points="127.9,78.3 146.4,78.3 127.9,64.8 	"/>
	<path fill="#1A8037" d="M107.3,141.9L88.2,149c-0.7,1.8-1.5,3.7-2.6,5.6l17.7,17.9L107.3,141.9z"/>
	<polygon fill="#51AB33" points="132.3,141.9 154,132.7 151.1,128.4 135.6,128.4 	"/>
	<polygon fill="#51AB33" points="139.6,112.4 138.7,116.3 142.5,116.3 	"/>
	<polygon fill="#DDEACC" points="153.7,128.4 151.1,128.4 154,132.7 161.4,130.1 164.4,116 158.2,95.3 146.4,95.5 139.6,112.4 
		142.5,116.3 153.7,116.3 	"/>
	<polygon fill="#CBE0BD" points="146.4,78.3 127.9,78.3 146.4,95.5 158.2,95.3 	"/>
	<path fill="#74B757" d="M154,132.7l-21.8,9.2l5,3.4c5,0.7,9.3,2.5,12.8,5.6L154,132.7z"/>
	<path fill="#268D37" d="M132.6,145.1c1.5,0,3.1,0.1,4.6,0.4l-5-3.4h-9.7l-0.5,5.7C125.6,146,128.5,145.1,132.6,145.1z"/>
	<path fill="#268D37" d="M128.5,155.4c-0.9,0-1.8,0.1-2.6,0.1l11.1,8.2l3.4-2.7C138,157.4,133.8,155.4,128.5,155.4z"/>
	<polygon fill="#268D37" points="107.3,141.9 109.7,143.7 109.8,141.9 	"/>
	<path fill="#459C35" d="M109,155.5l0.7-11.8l-2.4-1.8l-4,30.5l33.8-8.7l-11.1-8.2c-3.7,0.5-6.3,1.8-10.2,4.4L109,155.5z"/>
	<path fill="#2C4C28" d="M47.8,135l-7.9-7.9c3.8-4,7.4-7.1,11.7-9.2V91.8L20,102.6l31.6,42v-13.2C50.2,132.4,48.9,133.7,47.8,135z"
		/>
	<polygon fill="#407D33" points="20,102.6 51.5,91.8 51.5,58.8 23.6,74.4 	"/>
	<polygon fill="#1D592B" points="35.8,141.9 40.2,163.6 51.5,144.5 	"/>
	<path fill="#246C30" d="M56.4,171.6l-4.8-27.1l-11.3,19.2v25.9l0.2-0.2v-2.1C46.5,181.5,51.8,176.3,56.4,171.6z"/>
	<path fill="#388937" d="M51.5,144.5l4.8,27.1c3.4-3.5,6.4-6.7,9-9.9L51.5,144.5z"/>
	<path fill="#388937" d="M77.4,176.6l-4.1-5.2c-1.5,1.8-3.1,3.4-4.7,5.2H77.4z"/>
	<path fill="#318B36" d="M85.6,154.5c-1.5,2.7-3.4,5.6-5.6,8.4l-2.6,13.6l25.9-4.1L85.6,154.5z"/>
	<path fill="#468D36" d="M164.4,148.6L154,132.5l-4,18.3c2.7,2.5,5,5.7,6.1,9.8l3,3L164.4,148.6z"/>
	<polygon fill="#74B757" points="161.4,130.1 154,132.7 164.4,148.6 	"/>
	<polygon fill="#318B36" points="55,57 84.2,57 70.2,49.4 	"/>
	<path fill="#459C35" d="M55,57l15.3-7.6L65,48.7h-7.7c-12.4,4.5-23.6,11.7-32.6,20.9l-1.1,4.7L55,57z"/>
	<path fill="#198137" d="M159.2,163.6l-3-3c0.4,0.9,0.6,2,0.7,3H159.2z"/>
	<path fill="#198137" d="M137.1,163.6h4.8c-0.4-0.9-0.8-1.9-1.4-2.7L137.1,163.6z"/>
	<path fill="#85C283" d="M119.9,51.3l-0.9-1.1c-10-4.3-21-6.5-32.6-6.5c-0.4,0-0.7,0-1.2,0l18.2,10.2L119.9,51.3z"/>
	<path fill="#85C283" d="M171.2,114.8l-6.7,1.2l-3.1,14.1l3.1,18.7l7.7-10.9c0.2-2.6,0.4-5.1,0.4-7.8
		C172.5,124.9,172,119.8,171.2,114.8z"/>
	<path fill="#A5CE9F" d="M164.4,116l6.7-1.2c-1.3-7.6-3.7-14.9-6.9-21.6l-6,2.1L164.4,116z"/>
	<path fill="#DDEACC" d="M158.2,95.3l6-2.1c-4.5-9.5-10.5-18-18-25.1v10.2L158.2,95.3z"/>
	<path fill="#B8D1B1" d="M146.4,78.3V68.1c-8.3-7.9-18-14.3-28.8-18.4l10.4,15.1L146.4,78.3z"/>
	<path fill="#74B757" d="M66.6,49l7.2-4.3c-5.8,0.8-11.3,2.2-16.7,4.1l8.2,0.1H66.6z"/>
	<path fill="#175329" d="M23.6,74.4l-5.2,2.5c-3,3.7-5.6,7.6-7.8,11.8l9.3,14L23.6,74.4z"/>
	<path fill="#1F3F21" d="M24.7,69.6c-2.2,2.2-4.3,4.6-6.3,7.2l5.2-2.5L24.7,69.6z"/>
	<path fill="#1C672F" d="M40.4,189.4l-0.2,0.2v8.3L53,209.7c2.1,0.8,4.3,1.7,6.4,2.4l8.4-16.3H40.4V189.4z"/>
	<path fill="#1C672F" d="M74,183.4l3.4-6.9h-8.9c-2.2,2.5-4.7,5.1-7.2,7.7C65.3,184,70.2,183.5,74,183.4z"/>
	<path fill="#1D592B" d="M41.7,203.8c3.5,2.1,7.3,4.1,11.3,5.8l-12.8-11.8L41.7,203.8z"/>
	<path fill="#407D33" d="M117.9,210.3c0.2-0.1,0.5-0.2,0.7-0.4l1.5-13.1l-0.7-0.9c-1.7-0.5-3.2-0.9-4.7-1.5L117.9,210.3z"/>
	<path fill="#29602C" d="M94,188.9v6.7h-3.8l9.5,19.6c6.3-0.9,12.4-2.7,18.1-5l-3.1-16c-4.1-1.7-7.4-3.9-10.3-6.5L94,188.9z"/>
	<path fill="#5AA052" d="M154.8,182.3c6.1-8,10.9-17.1,14-27l-4.3-6.7l-7,19.6c0,0.5,0.1,0.9,0.1,1.5
		C157.6,174.6,156.5,178.8,154.8,182.3z"/>
	<path fill="#509434" d="M88.7,183.4l2-8.9l-13.2,2.1l-3.4,6.9c0.2,0,0.5,0,0.6,0h14.1V183.4z"/>
	<polygon fill="#509434" points="65.1,200.8 75.2,195.7 67.7,195.7 	"/>
	<path fill="#447F34" d="M159.2,163.6H157c0.2,1.5,0.5,3.2,0.5,4.8L159.2,163.6z"/>
	<path fill="#447F34" d="M142,163.6h-4.8l5,12.6c0.7-1.8,1.1-3.9,1.1-6.1C143.2,167.8,142.7,165.5,142,163.6z"/>
	<polygon fill="#2D642E" points="40.2,197.8 40.2,163.6 7.6,147.3 	"/>
	<path fill="#387330" d="M107.8,178.9l-4.5-6.5l-12.6,2l-2,8.9h5.4v5.4l10.4-1.1c-0.6-0.6-1.3-1.2-1.9-1.8L107.8,178.9z"/>
	<polygon fill="#235E2E" points="7.6,147.3 40.2,163.6 36.5,145.4 	"/>
	<path fill="#264322" d="M7.6,147.1l-5.8,0.5c2.1,10.3,6.1,19.9,11.6,28.5l17.6,7.4L7.6,147.1z"/>
	<path fill="#235E2E" d="M13.4,176.2c3.2,5,6.9,9.7,11,14l6.5-6.6L13.4,176.2z"/>
	<path fill="#1F3A20" d="M20,102.6l-9.3-14.1c-4.7,8.6-8,18.2-9.6,28.4l11.1,6L20,102.6z"/>
	<path fill="#5F9A33" d="M130.9,185.2L122,181l-0.4,3.4c1.9,0.6,4,0.8,6.3,0.8C128.9,185.4,129.9,185.3,130.9,185.2z"/>
	<path fill="#5F9A33" d="M120.2,196l-1.7,14c10-4.1,19.2-10,27-17.4c-4.6,3-10.2,4.5-15.8,4.5C126.1,197.1,123.1,196.7,120.2,196z"
		/>
	<path fill="#407D33" d="M0.9,117.1c-0.6,4.1-0.9,8.5-0.9,13c0,6,0.6,11.9,1.8,17.6l49.8-3.2L0.9,117.1z"/>
	<polygon fill="#29602C" points="20,102.2 12.2,123.1 51.5,144.5 	"/>
	<path fill="#1A8037" d="M142.1,176.4l-5-12.6l-33.8,8.7l27.5,12.6C136.1,184.3,140.2,181.2,142.1,176.4z"/>
	<path fill="#B2CD7A" d="M164.4,148.6l4.3,6.7c1.8-5.7,2.8-11.6,3.4-17.6L164.4,148.6z"/>
	<path fill="#73A43D" d="M120.1,196.9l0.1-0.8c-0.2,0-0.5-0.1-0.7-0.2L120.1,196.9z"/>
	<path fill="#73A43D" d="M121.5,184.6l0.4-3.4l-18.6-8.6l4.5,6.5l1.4-2C112.7,180.2,116.6,183.1,121.5,184.6z"/>
	<path fill="#1F3A20" d="M31,183.5l-6.5,6.6c5.1,5.3,10.9,9.9,17.3,13.7l-1.5-6L31,183.5z"/>
	<path fill="#2C4C28" d="M90.2,195.7h-15l-10,5.1L59.3,212c5.2,1.7,10.5,3,16.1,3.7l9.2,0.7c0.5,0,1.1,0,1.5,0
		c4.6,0,9.1-0.4,13.5-1.1L90.2,195.7z"/>
	<path fill="none" d="M40.4,187.3C62.5,166,76.4,152,76.4,139.9c0-8.4-4.6-13.7-13.1-13.7c-6.1,0-11.2,4.1-15.5,8.9l-7.9-7.9
		c7.2-7.7,14.4-12.2,25.3-12.2c15.3,0,25.1,9.6,25.1,24.4c0,14.1-13.1,28.5-28.7,45.2c4.1-0.4,9.3-0.8,13.2-0.8h19.4v12.2H40.4
		V187.3z"/>
	<path fill="none" d="M40.4,187.3C62.5,166,76.4,152,76.4,139.9c0-8.4-4.6-13.7-13.1-13.7c-6.1,0-11.2,4.1-15.5,8.9l-7.9-7.9
		c7.2-7.7,14.4-12.2,25.3-12.2c15.3,0,25.1,9.6,25.1,24.4c0,14.1-13.1,28.5-28.7,45.2c4.1-0.4,9.3-0.8,13.2-0.8h19.4v12.2H40.4
		V187.3z"/>
	<path fill="none" d="M109.2,177c4.7,4.5,10.6,8.5,18.6,8.5c8.9,0,15.4-5.6,15.4-15.3c0-9.5-5.9-14.8-14.5-14.8
		c-5.1,0-7.9,1.4-12.8,4.5l-6.9-4.4l2.4-39.1h42.3v12.1h-29.9l-1.7,19.2c3.3-1.7,6.4-2.6,10.5-2.6c13.6,0,24.9,7.7,24.9,24.8
		c0,17.4-13.4,27.3-27.9,27.3c-12.9,0-21.2-5.1-27.1-11L109.2,177z"/>
	<path fill="none" d="M109.2,177c4.7,4.5,10.6,8.5,18.6,8.5c8.9,0,15.4-5.6,15.4-15.3c0-9.5-5.9-14.8-14.5-14.8
		c-5.1,0-7.9,1.4-12.8,4.5l-6.9-4.4l2.4-39.1h42.3v12.1h-29.9l-1.7,19.2c3.3-1.7,6.4-2.6,10.5-2.6c13.6,0,24.9,7.7,24.9,24.8
		c0,17.4-13.4,27.3-27.9,27.3c-12.9,0-21.2-5.1-27.1-11L109.2,177z"/>
	<g>
		<polygon fill="#1B6F34" points="82.3,118.1 107.3,141.9 109.8,141.9 111.2,118.1 		"/>
		<polygon fill="#1B6F34" points="132.3,141.9 123.8,129.2 122.7,141.9 		"/>
	</g>
</g>
<g enable-background="new    ">
	<path fill="#088856" d="M182.6,59.4h8.8c9.1,0,15.3,4.2,15.3,14.8s-6.2,15.1-14.9,15.1h-9.3V59.4z M191,82.9c4.3,0,7.7-1.7,7.7-8.7
		c0-7-3.4-8.4-7.7-8.4h-0.5v17.2H191z"/>
	<path fill="#088856" d="M212.1,59.4h7.9v29.8h-7.9V59.4z"/>
	<path fill="#088856" d="M240.4,58.8c4.2,0,7.4,1.8,9.6,3.9l-4.3,4.9c-1.5-1.3-2.8-2-5.1-2c-4,0-7.1,3.2-7.1,8.6
		c0,5.6,2.5,8.7,7.8,8.7c0.8,0,1.7-0.2,2.3-0.6v-4.1h-4.4v-6.4h11.4v14.2c-2.2,1.8-6.1,3.7-10.3,3.7c-8.2,0-14.9-5.1-14.9-15.2
		C225.3,64.5,232.2,58.8,240.4,58.8z"/>
	<path fill="#088856" d="M256.3,59.4h7.9v29.8h-7.9V59.4z"/>
	<path fill="#088856" d="M276.5,66h-7.9v-6.6h23.7V66h-7.9v23.2h-7.9V66z"/>
	<path fill="#088856" d="M309,82.9h-8.4l-1.5,6.3h-8.1l9.1-29.8h9.5l9.1,29.8h-8.4L309,82.9z M307.6,76.8l-0.5-2.1
		c-0.7-2.8-1.5-6.5-2.2-9.5h-0.2c-0.6,3-1.4,6.6-2.1,9.5l-0.5,2.1H307.6z"/>
	<path fill="#088856" d="M321.7,59.4h7.9v23.2h11.3v6.6h-19.2V59.4z"/>
	<path fill="#088856" d="M346,59.4h19.3V66h-11.4v4.7h9.7v6.6h-9.7v5.3h11.8v6.6H346V59.4z"/>
</g>
<g enable-background="new    ">
	<path fill="#088856" d="M202,114.5h8.2l4.7,12.4l1.7,4.9h0.2l1.7-4.9l4.5-12.4h8.2v29.8h-7.3v-8.8c0-3,0.6-7.7,1-10.7h-0.2l-2.5,7
		l-4.1,10.1H215l-4.1-10.1l-2.4-7h-0.2c0.4,3,1,7.6,1,10.7v8.8H202V114.5z"/>
	<path fill="#088856" d="M237.7,114.5h19.3v6.6h-11.4v4.7h9.7v6.6h-9.7v5.3h11.8v6.6h-19.7V114.5z"/>
	<path fill="#088856" d="M263.2,114.5h8.8c9.1,0,15.3,4.2,15.3,14.8c0,10.6-6.2,15.1-14.9,15.1h-9.3V114.5z M271.5,138
		c4.3,0,7.7-1.7,7.7-8.7c0-7-3.4-8.4-7.7-8.4h-0.5V138H271.5z"/>
	<path fill="#088856" d="M292.7,114.5h7.9v29.8h-7.9V114.5z"/>
	<path fill="#088856" d="M307.2,114.5h19.3v6.6h-11.4v4.7h9.7v6.6h-9.7v5.3h11.8v6.6h-19.7V114.5z"/>
	<path fill="#088856" d="M332.7,114.5h8.1l6.6,13.3l2.8,6.7h0.2c-0.4-3.2-1-7.7-1-11.4v-8.6h7.5v29.8h-8.1l-6.6-13.4l-2.8-6.7h-0.2
		c0.4,3.4,1,7.7,1,11.4v8.6h-7.5V114.5z"/>
</g>
<g>
	<path fill="#E5007E" d="M236,183.7L236,183.7c0-0.1,0.2,0.6,0,2.1c0,0.1-0.2,1.5-1.4,3c-0.6,0.7-3.9,3.7-4.5,3.9
		c-6.7,4.7-11.2,6.3-12.8,7.1c-1.8,0.8-3,1.1-4,1.4c-3.3,1.2-5.7,1.9-7.2,2c-0.2,0-0.7-0.1-1.2-0.4c-0.6-0.2-0.9-0.5-1.2-0.7
		c-0.2-0.2-0.4-0.6-0.4-1.1c0-0.5,0.4-0.9,1.3-1.4c0,0,0.1,0,0.2,0c0.1,0,0.1,0.1,0.2,0.1c0.1,0,0.4-0.1,0.6-0.2
		c0.9-0.2,1.8-0.4,2.2-0.5c0.8-0.2,1.4-0.5,1.9-0.7c-0.8-4.1-1.3-6.5-1.4-7.2l0,0c0-0.1,0-1.1,0.1-3c0-2.4,0-3.8,0-4.6
		c0-0.1,0.1-0.4,0.2-0.6c-0.1-0.1-0.1-0.2-0.1-0.4s0-0.2,0-0.4c0-0.1,0.1-0.8,0.4-2.5c0.1,0,0.4-0.1,0.5-0.2
		c-0.4-0.1-0.6-0.2-0.8-0.2c0,0-1.2,0.4-3.3,1.1l-3.3,1.1c-0.2,0-0.6-0.1-1.1-0.6c-0.4-0.4-0.6-0.6-0.6-0.7c0-0.5,0.4-1.1,1.1-1.5
		c0.4-0.2,1.3-0.6,3-1.3c2.2-0.8,3.9-1.3,5-1.4l11-0.9c0,0,0.4,0,0.9,0.1c0.6,0.1,1.1,0.1,1.1,0.1c0.9,0,1.8,0,2.7,0.1
		c1.7,0.1,3.5,0.7,5.6,1.8c2.1,1.1,3.4,2.2,4,3.4c0.1,0.2,0.4,0.7,0.7,1.3C235.7,183,236,183.5,236,183.7z M232.9,184.6
		c-0.2-1.1-0.4-1.5-0.4-1.5c-0.1,0-0.1-0.1-0.1-0.1c-0.4-0.9-1.3-2-3-3c-1.1-0.6-2.1-1.1-3.3-1.3c-1.8-0.2-4.5-0.4-8.4-0.4
		c-0.4-0.1-0.6-0.1-0.6-0.1c-0.1,0-0.4,0.1-0.6,0.2c-2,0.1-4,0.5-6.3,0.9c0,0.2,0.1,0.5,0.4,0.8c0.2,0.1,0.5,0.4,0.7,0.6
		c0.2,0.7,0.5,1.3,0.5,1.8v0.1c0,0.2,0,1.2-0.1,2.8c-0.1,2-0.1,3.4-0.1,4.3l0.2,5.1c0,0.1,0.2,0.9,0.7,2.6c0.2,0.1,0.5,0.1,0.5,0.1
		c0.6,0,2.6-0.9,6.3-2.7c3.2-1.5,5.3-2.6,6.5-3.3c2.1-1.2,4-2.8,5.9-4.7C232.5,186,233,185.3,232.9,184.6z"/>
	<path fill="#E5007E" d="M252.4,197.8c0,0.4,0,0.7-0.2,1.1s-0.5,0.5-0.7,0.5c-0.4,0-1.7-0.5-3.7-1.3c-1.2-0.5-1.8-0.7-1.9-0.8
		c-0.5,0-1.1,0.2-1.8,0.7c-1.1,0.6-1.5,0.8-1.8,0.9c-0.7,0.2-1.3,0.5-2,0.5c-0.8,0.1-2-0.5-3.3-1.4c-0.5-0.6-0.7-1.1-0.8-1.7
		c0-0.7,0.1-1.5,0.4-2.7c0.1-0.2,0.4-0.6,0.8-0.8l0.9-0.6c2.1-1.5,4.1-2.4,5.9-2.6c0.5,0,1.2,0,2.1,0.2c0.2,0.1,0.6,0.4,1.1,0.9
		c0.5,0.6,0.7,1.1,0.7,1.3c0,0.5-0.2,0.9-0.8,1.4c-1.3-0.6-2.4-0.8-3.1-0.8c-0.7,0.1-1.5,0.4-2.4,0.8c-0.9,0.6-1.8,1.2-2.4,1.8
		c0.1,0.4,0.5,0.5,1.2,0.4h-0.1c0-0.1,0.7-0.4,2-0.9c1.5-0.7,2.8-1.1,3.5-1.1c0.2,0,1.1,0.5,2.5,1.4c1.5,1.1,2.6,1.8,3.3,2
		C252.2,197.6,252.4,197.8,252.4,197.8z"/>
	<path fill="#E5007E" d="M267.9,193.4c0,0.1-0.1,0.5-0.6,0.8c-0.4,0.4-0.7,0.6-1.2,0.7c-0.7,0.2-2,0.8-4,1.7c-2.2,0.9-3.9,1.4-5,1.5
		c0,0-0.2,0-0.7-0.1c-0.4,0-0.6-0.1-0.6-0.1s-0.5,0.1-1.2,0.4c-0.1,0-0.4-0.1-0.7-0.6c-0.4-0.4-0.5-0.6-0.5-0.8
		c0-0.1,0.1-0.4,0.5-0.8l4.7-1.3c2-0.6,3.4-1.1,4.1-1.5c0-0.1,0-0.1,0-0.2c-0.4-0.2-1.5-0.7-3.5-1.3c-2-0.6-3.2-1.1-3.5-1.2
		c-0.4-0.1-0.9-0.4-1.9-0.8c-0.2-0.2-0.4-0.6-0.5-1.3v0.1c0,0-0.1-0.1-0.1-0.2c0-0.1,0-0.1,0-0.2c0-0.5,0.5-0.9,1.4-1.3
		c1.2-0.6,2.8-1.2,5.2-1.8c2.4-0.6,4.3-0.9,5.8-1.1c0.5,0,0.7,0,0.8,0.1c0.7,0.6,1.1,1.1,1.1,1.4c0,0.6-0.1,0.9-0.5,1.2
		c-0.4,0.1-1.9,0.5-4.6,0.9c-0.5,0.2-0.8,0.4-0.8,0.4s-0.1,0-0.2,0s-0.2,0-0.4,0c-0.6,0-1.2,0.2-1.9,0.7c0.1,0.2,0.5,0.5,0.8,0.6
		c0.4,0,1.1,0.1,2.2,0.4c0.2,0.1,0.8,0.2,1.8,0.5h0.2c0.1,0,0.7,0.2,1.5,0.5c0.6,0.1,1.1,0.5,1.5,0.9c0.2,0.1,0.4,0.6,0.5,1.1
		c0,0,0.1,0.1,0.2,0.4C267.8,193.2,267.9,193.3,267.9,193.4z"/>
	<path fill="#E5007E" d="M308,180.3c0,0.6,0,0.9-0.1,1.2c0.2,0.5,0.2,1.1,0.4,1.5c0,0.6-0.1,2.4-0.6,5.3c-0.2,1.2-0.7,2.4-1.4,3.3
		c-1.2,1.4-3.3,2.4-6.3,2.6c-3,0.2-5.8-0.1-8.4-1.2c-1.4-0.6-3-1.5-4.6-2.8c-0.7-0.6-1.1-1.2-1.1-1.9c0-0.4,0.2-0.7,0.8-1.3h0.5
		c0.4,0.6,0.8,1.1,1.3,1.3c0.5,0.1,1.2,0.4,2.1,0.8c0.7,0.4,1.9,0.8,3.5,1.4c1.4,0.4,2.6,0.4,3.4,0.4c0.1,0,0.2,0,0.4,0
		c0.1,0,0.2,0,0.6-0.1c0.4,0,0.8-0.1,1.4-0.1l2.1-0.2c0.5,0,0.9-0.4,1.5-1.1c0.2-0.2,0.5-0.8,0.9-1.8l0.4-0.4
		c0.4-1.5,0.6-2.5,0.6-3.1c0-0.4,0-1.2,0.1-2.4l-0.2-2.8c-0.1-1.3-0.5-3.4-1.2-6.6c0,0-0.2-0.4-0.6-0.9c-0.2-0.5-0.5-0.8-0.5-1.1
		c0-0.5,0-0.8,0.1-0.9l1.2-1.1c0.7,0.4,1.4,1.5,2,3.3c0.2,0.7,0.6,2.2,1.1,4.8C307.7,178.4,308,179.8,308,180.3z"/>
	<path fill="#E5007E" d="M330.1,180.4c0.1,0.7,0,1.2-0.1,1.7c-0.2,0.8-0.5,1.7-0.8,2.6c-0.1,0-0.2,0.1-0.4,0.4
		c0,0.4-0.2,0.8-0.7,1.4l-0.9,1.3c0,0.1,0,0.2-0.1,0.4c-0.9,1.2-2.4,2.2-4.1,3.3c-1.7,0.7-3,1.1-3.8,1.1c-0.5,0-1.2,0-2.2-0.2
		c-3.7-0.8-5.7-3.2-6-7.2c-0.1-1.4,0.2-2.6,0.9-3.8l0.8-0.1c0.7,0.5,1.1,1.2,1.2,2.1c0,0,0,0.4,0,1.1c0,0.7,0,1.1,0,1.1
		c0.1,1.8,1.2,2.8,3.2,3.2c0.7,0.1,1.1,0.2,1.1,0.2l0,0c0,0,0.2,0,0.6-0.1c0.4-0.1,0.5-0.1,0.6-0.1c1.1-0.1,2.4-0.8,4-2.1
		c0.9-0.8,2-1.9,2.8-3.3c0.9-1.4,1.4-2.6,1.5-3.4c0-0.1,0.2-0.4,0.5-0.7c0.4-0.4,0.6-0.6,0.7-0.6C329.6,178.4,330,179.1,330.1,180.4
		z"/>
	<path fill="#E5007E" d="M350.4,182.1c0.1,1.3-0.9,2.8-3.2,4.5c-2,1.5-3.7,2.4-5,2.5c-0.1,0.1-0.4,0.2-0.7,0.5
		c-0.4,0.2-1.2,0.5-2.4,0.8c-2.8,0.8-4.5,1.3-5,1.3c-0.4,0-0.6-0.1-0.9-0.4c-0.4-0.2-0.5-0.6-0.6-0.8c0-0.1,0.2-0.4,0.7-0.8l0.8-0.6
		c0-0.1-0.2-0.6-0.7-1.2c-0.2-0.4-0.5-0.8-0.5-1.3c0-0.1,0-0.6,0.1-1.4c0-0.8,0.1-1.4,0.1-1.5c0-0.4-0.4-0.7-0.8-1.2
		c0-0.1-0.1-0.2-0.2-0.7c-0.1-0.4-0.2-0.6-0.2-0.6c0-0.4,0.5-0.8,1.4-1.7c0-0.7,0-1.3,0.1-1.9c0.4-3.5,0.8-6.6,1.4-9.3
		c0.1-0.7,0.6-1.2,1.4-1.5c0.5,0.2,0.9,0.9,1.7,2.5c0,0.1-0.1,0.6-0.4,1.4c-0.2,0.9-0.4,1.5-0.5,1.9c0,0.6,0,1.5,0,3
		c0,0.1-0.1,0.5-0.2,1.2c-0.1,0.7-0.2,1.1-0.2,1.1c0,0.5,0.6,0.7,1.5,0.7c3.8-0.4,6.7-0.2,8.9,0.1c0.7,0.1,1.4,0.6,2.1,1.3
		C349.9,180.8,350.3,181.5,350.4,182.1z M347.3,182.2c0-0.6-1.1-0.9-3.1-1.2c-1.4-0.1-2.8-0.1-4,0c-0.8,0.2-1.2,0.4-1.4,0.4l0,0
		c-0.5,0-0.9,0-1.2,0c-0.1,0-0.2,0-0.4,0c-0.6,0.1-0.9,0.5-1.1,0.9c0,0.1,0,0.5-0.1,0.9c-0.2,2.1-0.4,3.1-0.4,3.1s0,0,0-0.1
		c0.5,1.1,0.7,1.7,0.7,1.9h0.6c0.7-0.4,1.4-0.7,2.4-1.1c1.7-0.7,3.4-1.5,5.1-2.5C346.5,183.7,347.5,182.9,347.3,182.2z"/>
	<path fill="#E5007E" d="M355.5,179.9c0,0.1,0.4,2.6,0.8,7.4l0,0c0,0.2,0,0.7-0.2,1.7l-0.4,0.1c0,0,0,0-0.1,0
		c-0.2,0-0.7-0.1-1.4-0.2v-0.1c0-0.2-0.1-0.5-0.5-0.8c-0.4-0.5-0.6-0.8-0.7-0.9c0,0,0-0.1,0-0.2c0-0.4,0-0.9,0-1.9
		c0-2,0.1-3.8,0.2-5.3c0.2-0.4,0.6-0.6,0.9-0.6C354.8,179,355.1,179.2,355.5,179.9z M355.8,172.9c0,0.2-0.2,0.7-0.8,1.5
		c-1.1-0.2-1.7-0.6-1.7-1.2s0.1-1.2,0.5-2c0.2,0,0.7-0.1,1.3-0.2C355.6,171.6,355.8,172.1,355.8,172.9z"/>
	<path fill="#E5007E" d="M364.8,163.9l0.2,3.1c-0.2,1.2-0.5,3.1-0.6,5.8c0,0.5-0.2,1.8-0.6,3.9c0,0.2,0.1,0.6,0.1,0.9
		c-0.1,0.8-0.2,2-0.4,3.5c0,0.6,0.1,1.1,0.1,1.5c0.1,1.3,0.2,2.2,0.5,2.7c-0.1,0.1-0.1,0.4-0.1,0.5c0.2,0.2,0.4,0.5,0.5,0.9
		c0,0.5,0,0.9-0.4,1.3c-0.2,0.4-0.6,0.6-0.9,0.6c-0.2,0-0.5-0.1-0.9-0.4c-0.5-0.2-0.7-0.5-0.9-0.7c0-0.1-0.1-0.7-0.4-2
		c-0.2-0.2-0.2-0.4-0.2-0.4l-0.4-3.8l0.9-14.5c0.1-0.7,0.1-1.1,0.1-1.3l0,0c0-0.1-0.1-0.4-0.2-0.8l-0.1-0.7l0.7-1.9l0.4-0.2
		c0.4,0,0.8,0.2,1.4,0.7C364.5,163.2,364.8,163.6,364.8,163.9z"/>
	<path fill="#E5007E" d="M383.4,186.6c0,0.4,0,0.7-0.2,1.1c-0.2,0.4-0.5,0.5-0.7,0.5c-0.4,0-1.5-0.5-3.4-1.3
		c-1.1-0.5-1.7-0.7-1.8-0.7c-0.5,0-0.9,0.2-1.7,0.6c-0.9,0.5-1.5,0.8-1.7,0.9c-0.6,0.2-1.3,0.5-1.9,0.5c-0.8,0.1-1.9-0.4-3.2-1.4
		c-0.5-0.6-0.7-1.1-0.7-1.5c0-0.6,0.1-1.4,0.4-2.6c0.1-0.2,0.4-0.5,0.8-0.8l0.8-0.5c2-1.5,3.9-2.2,5.7-2.5c0.5,0,1.2,0,2,0.2
		c0.2,0.1,0.6,0.4,0.9,0.9c0.4,0.6,0.6,0.9,0.6,1.3c0,0.5-0.2,0.9-0.7,1.4c-1.3-0.6-2.2-0.8-3-0.8c-0.7,0.1-1.4,0.4-2.2,0.7
		c-0.9,0.6-1.7,1.1-2.2,1.7c0.1,0.2,0.5,0.5,1.1,0.4h-0.1c0-0.1,0.6-0.4,1.9-0.8c1.5-0.6,2.7-0.9,3.4-1.1c0.2,0,0.9,0.5,2.4,1.4
		c1.4,1.1,2.5,1.7,3.1,1.9C383.3,186.3,383.4,186.5,383.4,186.6z M373.1,176.8c0,0.4-0.1,0.7-0.4,1.1c-0.2,0.4-0.6,0.6-1.1,0.6
		c-0.5,0-0.8-0.1-1.2-0.4c-0.4-0.2-0.6-0.6-0.6-0.9c0-0.6,0.1-1.2,0.6-1.7c0.4,0.1,0.8,0.2,1.4,0.4C372.6,176,373,176.4,373.1,176.8
		z M379.1,176.9c0.1,0.7-0.2,1.2-0.9,1.2c-1.1,0.1-1.7-0.5-1.7-1.5c0-0.6,0-0.9,0-1.3l1.1-0.1C378.5,175.1,379,175.7,379.1,176.9z"
		/>
	<path fill="#E5007E" d="M402.3,174.2c0.1,0.7,0,1.2-0.1,1.7c-0.2,0.8-0.5,1.7-0.8,2.6c-0.1,0-0.2,0.1-0.4,0.4
		c0,0.4-0.2,0.8-0.7,1.4l-0.9,1.3c0,0.1,0,0.2-0.1,0.4c-0.9,1.2-2.4,2.2-4.1,3.3c-1.7,0.7-3,1.1-3.8,1.1c-0.5,0-1.2,0-2.2-0.2
		c-3.7-0.8-5.7-3.2-6-7.2c-0.1-1.4,0.2-2.6,0.9-3.8l0.8-0.1c0.7,0.5,1.1,1.2,1.2,2.1c0,0,0,0.4,0,1.1c0,0.6,0,1.1,0,1.1
		c0.1,1.8,1.2,2.8,3.2,3.2c0.7,0.1,1.1,0.2,1.1,0.2l0,0c0,0,0.2,0,0.6-0.1s0.5-0.1,0.6-0.1c1.1-0.1,2.4-0.8,4-2.1
		c0.9-0.8,2-1.9,2.8-3.3c0.9-1.4,1.4-2.6,1.5-3.4c0-0.1,0.2-0.4,0.5-0.7c0.4-0.4,0.6-0.6,0.7-0.6
		C401.8,172.3,402.2,172.9,402.3,174.2z"/>
	<path fill="#E5007E" d="M435.5,183.8c0,0-0.2,0-0.6,0.1c-0.4,0.1-0.6,0.1-0.6,0.1c-0.5,0-0.9-0.2-1.4-0.7v-0.1
		c0-0.1-0.1-0.4-0.1-0.6c-0.6-0.8-1.1-2.8-1.4-5.8c-0.1-0.1-0.2-0.2-0.4-0.4c-1.3,0.1-2.8,1.2-4.7,3l-4.5,4.1
		c-0.2,0.2-0.7,0.4-1.3,0.5c-1.3,0.1-2.1-0.4-2.2-1.3c0,0,0-0.1,0-0.2c0-0.4,0-0.9-0.1-1.9c0-1.2-0.1-2.2-0.1-3.1
		c-0.1-0.9-0.2-1.7-0.4-2.2c-0.1-0.2-0.4-0.4-0.6-0.2c-0.5,0-1.3,0.7-2.6,1.9c-0.4,0.4-1.1,1.1-2.1,2.1c-0.4,0.4-1.1,1.2-2,2.4
		c-1.3,1.4-2.2,2.1-2.8,2.2c-0.4,0-0.8-0.2-1.3-0.8c-0.5-0.5-0.7-0.8-0.7-0.9c-0.1-0.7,0-1.9,0.2-3.4c0.2-2.1,0.7-3.2,1.3-3.2
		c0.6,0,1.1,0.2,1.4,0.7l0.8,1.3c0.9-0.8,2-1.8,3.3-2.8c2-1.7,3.5-2.6,4.5-2.7c0.7-0.1,1.5,0.4,2.5,1.3c0.7,0.7,1.2,1.3,1.2,1.4
		c0.4,1.2,0.6,2.4,0.6,3.4c0,0.1,0,0.4,0,0.5c0.1,0,0.1,0.1,0.2,0c0.4,0,0.9-0.4,1.5-1.1c0.4-0.4,1.9-1.4,4.4-3.3
		c1.3-0.7,2.6-1.2,3.9-1.3c0.1,0,0.4,0,0.5,0c0.2,0.4,0.5,0.6,0.9,0.7c0.5,0.5,1.1,1.3,1.7,2.2c0.1,0.5,0.2,0.9,0.2,1.7
		c0,0.7,0.1,1.4,0.1,2.2c0,0.1,0,0.4,0,0.5c0,0.5,0.1,0.9,0.2,1.5C435.3,182.9,435.4,183.5,435.5,183.8z"/>
	<path fill="#E5007E" d="M440.6,180.9c0.1,1.2-0.2,1.8-1.1,1.8c-0.2,0-0.7-0.2-1.2-0.7c-0.5-0.5-0.7-0.9-0.8-1.2
		c0-0.7,0.4-1.1,1.4-1.1c0.2,0,0.6,0.1,1.1,0.5C440.4,180.4,440.6,180.8,440.6,180.9z M442.3,156.9c-0.1,0.8-0.2,1.7-0.4,2.8
		c-0.2,1.9-0.5,3.3-0.6,4.3c-0.1,0.5-0.1,1.4-0.2,3c0,0.7-0.1,2-0.2,4c0,0.2-0.1,1.4-0.4,3.4c0,0.5,0.1,1.3,0.1,2.2
		c0,0.1-0.1,0.4-0.4,0.5c-0.2,0.2-0.5,0.4-0.6,0.4c-1.1,0.1-1.7-0.7-1.8-2.4c0.1-1.4,0.1-2.4,0.1-2.8c0-0.4,0-0.8,0-1.5
		c0.1-0.9,0.2-2.7,0.4-5.1c0.5-2.1,0.7-3.8,0.9-5.1c0.1-0.8,0.2-2.4,0.5-4.7c0.1-0.6,0.4-0.9,0.8-0.9c0.1,0,0.4,0,0.6,0.1
		c0.1,0.4,0.5,0.6,1.1,0.9c0,0,0,0.2,0.1,0.5C442.3,156.7,442.3,156.9,442.3,156.9z"/>
</g>
<g>
	<g>
		<path fill="#E5007E" d="M216.3,214.4c79.4-13.7,160.5-17.4,241.1-15.3c1.9,0,1.9-3,0-3c-80.7-2.1-162.1,1.5-241.9,15.4
			C213.6,211.8,214.5,214.7,216.3,214.4L216.3,214.4z"/>
	</g>
</g>
</svg>
