<?xml version="1.0" encoding="UTF-8" standalone="no"?>
<!-- Generator: Adobe Illustrator 18.1.1, SVG Export Plug-In . SVG Version: 6.00 Build 0)  -->

<svg
   xmlns:dc="http://purl.org/dc/elements/1.1/"
   xmlns:cc="http://creativecommons.org/ns#"
   xmlns:rdf="http://www.w3.org/1999/02/22-rdf-syntax-ns#"
   xmlns:svg="http://www.w3.org/2000/svg"
   xmlns="http://www.w3.org/2000/svg"
   xmlns:sodipodi="http://sodipodi.sourceforge.net/DTD/sodipodi-0.dtd"
   xmlns:inkscape="http://www.inkscape.org/namespaces/inkscape"
   version="1.1"
   id="Ebene_1"
   x="0px"
   y="0px"
   viewBox="0 0 90 90"
   enable-background="new 0 0 90 90"
   xml:space="preserve"
   inkscape:version="0.48.4 r9939"
   width="100%"
   height="100%"
   sodipodi:docname="round25.svg"><metadata
   id="metadata183"><rdf:RDF><cc:Work
       rdf:about=""><dc:format>image/svg+xml</dc:format><dc:type
         rdf:resource="http://purl.org/dc/dcmitype/StillImage" /><dc:title></dc:title></cc:Work></rdf:RDF></metadata><defs
   id="defs181">
	
	
	
	
	
	
	
	
	
	
	
	
	
	
	
	
	
	
	
	
	
	
	
	
	
	
	
	
	
	
	
	
	
	
	
	
	
	
	
	
	
	
	
	
	
	
	
	
	
	
	
	
	
	
	
	
	
	
	
	
	
	
	
	
	
	
	
	
	
	
	
	
	
	
	
	
	
	
	
	
	
	
	
	
	
</defs><sodipodi:namedview
   pagecolor="#ffffff"
   bordercolor="#666666"
   borderopacity="1"
   objecttolerance="10"
   gridtolerance="10"
   guidetolerance="10"
   inkscape:pageopacity="0"
   inkscape:pageshadow="2"
   inkscape:window-width="1600"
   inkscape:window-height="837"
   id="namedview179"
   showgrid="false"
   inkscape:zoom="5.6568543"
   inkscape:cx="46.429158"
   inkscape:cy="47.046039"
   inkscape:window-x="-8"
   inkscape:window-y="-8"
   inkscape:window-maximized="1"
   inkscape:current-layer="Ebene_1" />
<path
   style="fill:#156d32;stroke:none"
   d="m 39.3,26.9 14.6,2.3 0,-17 z"
   id="polygon5" /><path
   style="fill:#407d33;stroke:none"
   d="m 53.9,12.2 -15.9,1.7 -11.1,11 12.4,2 z"
   id="polygon7" /><path
   style="fill:#1b6f34;stroke:none;stroke-opacity:1;stroke-width:0;stroke-miterlimit:4;stroke-dasharray:none;stroke-linejoin:round"
   inkscape:connector-curvature="0"
   id="path9"
   d="m 26.9,24.9 v 13.6 c 2.1,-1 4.3,-1.6 7.1,-1.6 3.2,0 6,0.8 8.1,2.4 l 11.8,-10.1 -27,-4.3 z" /><path
   style="fill:#1b6f34;stroke:none"
   inkscape:connector-curvature="0"
   id="path11"
   d="M 36.878125,43.866406 26.8905,52.438136 26.9,45.5 c 1.8,-1.5 3.8,-2.6 6,-2.7 1.6,0 2.978125,0.466406 3.977343,1.067578 m 0,0 L 26.866525,52.452331 38.5,55 c 0.9,-1.7 1.3,-3.4 1.3,-4.9 0,-2.9 -1.023438,-5.13125 -2.923438,-6.23125"
   sodipodi:nodetypes="ccccccccsc" /><path
   style="fill:#19612f;stroke:none"
   d="m 42.9,38.7 15.1,0 0.1,-0.9 1.9,0 -6.1,-8.6 z"
   id="polygon13" /><path
   style="fill:#166c30;stroke:none;stroke-opacity:1;stroke-width:0;stroke-miterlimit:4;stroke-dasharray:none;stroke-linejoin:round"
   inkscape:connector-curvature="0"
   id="path15"
   d="m 42.9,38.7 -0.8,0.7 c 0.3,0.2 0.5,0.4 0.8,0.6 v -1.3 z" /><path
   style="fill:#17622f;stroke:none;stroke-opacity:1;stroke-width:0;stroke-miterlimit:4;stroke-dasharray:none;stroke-linejoin:round"
   inkscape:connector-curvature="0"
   id="path19"
   d="M 56,51.1 43,38.7 V 40 c 2.6,2.2 4.1,5.6 4.1,9.7 0,1.7 -0.4,3.4 -1,5.1 L 56,51.1 z" /><path
   style="fill:#278437;stroke:none;stroke-opacity:1;stroke-width:0;stroke-miterlimit:4;stroke-dasharray:none;stroke-linejoin:round"
   inkscape:connector-curvature="0"
   id="path21"
   d="M 40.4,69.1 41.7,62 c -1.1,1.4 -2.3,2.9 -3.5,4.4 l 2.2,2.7 z" /><path
   style="fill:#278437;stroke:none;stroke-opacity:1;stroke-width:0;stroke-miterlimit:4;stroke-dasharray:none;stroke-linejoin:round"
   inkscape:connector-curvature="0"
   id="path23"
   d="m 26.9,52.4 7.2,8.9 C 36,59 37.5,56.9 38.5,54.9 L 26.9,52.4 z" /><path
   style="fill:#76b863;stroke:none"
   d="m 70.7,44.1 -6.1,0 -0.1,0.3 4.5,6.7 z"
   id="polygon25" /><path
   style="fill:#76b863;stroke:none"
   d="m 72.3,37.8 0.5,-2.1 -8.4,2.1 z"
   id="polygon27" /><path
   style="fill:#5aa052;stroke:none"
   d="m 53.9,29.2 6.1,8.6 0.9,0 2.8,-9.5 3,-10.4 z"
   id="polygon29" /><path
   style="fill:#75b968;stroke:none"
   d="m 60.9,37.8 3.5,0 8.4,-2.1 -8.7,-8.8 z"
   id="polygon31" /><path
   style="fill:#a7cd8d;stroke:none"
   d="m 76.3,26.9 -9.6,-9 -2.6,9 8.7,8.8 z"
   id="polygon33" /><path
   style="fill:#238338;stroke:none"
   d="m 53.9,12.2 0,17 12.8,-18.3 z"
   id="polygon35" /><path
   style="fill:#75b968;stroke:none"
   d="m 53.9,29.2 12.8,-11.3 0,-7 z"
   id="polygon37" /><path
   style="fill:#85c283;stroke:none"
   d="m 45,6.9 -9.4,7.2 18.3,-1.9 z"
   id="polygon39" /><path
   style="fill:#1b6f34;stroke:none"
   d="M 45,6.9 28.7,6.9 27,7.8 26.9,24.9 z"
   id="polygon41" /><path
   style="fill:#74b757;stroke:none"
   d="m 36,2.5 17.9,9.7 0,-7 z"
   id="polygon43" /><path
   style="fill:#5aa052;stroke:none"
   d="m 66.7,10.9 -4.2,-7 -8.6,1.3 0,7 z"
   id="polygon45" /><path
   style="fill:#5e9a55;stroke:none;stroke-opacity:1;stroke-width:0;stroke-miterlimit:4;stroke-dasharray:none;stroke-linejoin:round"
   inkscape:connector-curvature="0"
   id="path47"
   d="M 53.9,5.2 44.4,0 c -2,0 -4,0.2 -5.9,0.5 l -3.8,2.2 19.2,2.5 z" /><path
   style="fill:#7fad7a;stroke:none"
   d="m 66.7,10.9 0,7 9.6,0 z"
   id="polygon49" /><path
   style="fill:#1a8037;stroke:none;stroke-opacity:1;stroke-width:0;stroke-miterlimit:4;stroke-dasharray:none;stroke-linejoin:round"
   inkscape:connector-curvature="0"
   id="path51"
   d="m 56,51.1 -10,3.7 c -0.4,1 -0.8,1.9 -1.3,2.9 L 54,67 56,51.1 z" /><path
   style="fill:#51ab33;stroke:none"
   d="m 78.8,44.1 -8.1,0 -1.7,7 11.3,-4.9 z"
   id="polygon53" /><path
   style="fill:#51ab33;stroke:none"
   d="m 74.3,37.8 -1.5,-2.1 -0.5,2.1 z"
   id="polygon55" /><path
   style="fill:#ddeacc;stroke:none"
   d="m 80.3,46.2 3.8,-1.3 1.6,-7.3 -3.2,-10.8 -6.2,0.1 -3.5,8.8 1.5,2.1 5.8,0 0,6.3 -1.3,0 z"
   id="polygon57" /><path
   style="fill:#cbe0bd;stroke:none"
   d="m 76.3,26.9 6.2,-0.1 -6.2,-8.9 -9.6,0 z"
   id="polygon59" /><path
   style="fill:#74b757;stroke:none;stroke-opacity:1;stroke-width:0;stroke-miterlimit:4;stroke-dasharray:none;stroke-linejoin:round"
   inkscape:connector-curvature="0"
   id="path61"
   d="m 80.3,46.2 -11.3,4.9 2.6,1.8 c 2.6,0.4 4.9,1.3 6.7,2.9 l 2,-9.6 z" /><path
   style="fill:#268d37;stroke:none;stroke-opacity:1;stroke-width:0;stroke-miterlimit:4;stroke-dasharray:none;stroke-linejoin:round"
   inkscape:connector-curvature="0"
   id="path63"
   d="m 69.2,52.7 c 0.8,0 1.6,0.1 2.4,0.2 L 69,51.1 h -5 l -0.3,3 c 1.8,-0.9 3.3,-1.4 5.5,-1.4 z" /><path
   style="fill:#268d37;stroke:none;stroke-opacity:1;stroke-width:0;stroke-miterlimit:4;stroke-dasharray:none;stroke-linejoin:round"
   inkscape:connector-curvature="0"
   id="path65"
   d="m 67,58.1 c -0.5,0 -0.9,0 -1.3,0.1 l 5.8,4.2 1.8,-1.4 C 72,59.1 69.8,58.1 67,58.1 z" /><path
   style="fill:#268d37;stroke:none"
   d="m 57.3,51.1 -1.3,0 1.2,0.9 z"
   id="polygon67" /><path
   style="fill:#459c35;stroke:none;stroke-opacity:1;stroke-width:0;stroke-miterlimit:4;stroke-dasharray:none;stroke-linejoin:round"
   inkscape:connector-curvature="0"
   id="path69"
   d="M 56.8,58.1 57.2,51.9 56,51.1 53.9,67 71.5,62.4 65.7,58.2 c -1.9,0.2 -3.3,0.9 -5.3,2.3 l -3.6,-2.4 z" /><path
   style="fill:#2c4c28;stroke:none;stroke-opacity:1;stroke-width:0;stroke-miterlimit:4;stroke-dasharray:none;stroke-linejoin:round"
   inkscape:connector-curvature="0"
   id="path71"
   d="m 25,47.5 -4.2,-4.2 c 2,-2.1 3.9,-3.7 6.1,-4.8 V 24.9 l -16.4,5.7 16.4,21.8 v -6.9 c -0.6,0.6 -1.3,1.3 -1.9,2 z" /><path
   style="fill:#407d33;stroke:none"
   d="M 27,7.8 12.4,15.9 10.5,30.6 26.9,24.9 z"
   id="polygon73" /><path
   style="fill:#1d592b;stroke:none"
   d="M 26.9,52.4 18.7,51.1 21,62.4 z"
   id="polygon75" /><path
   style="fill:#246c30;stroke:none;stroke-opacity:1;stroke-width:0;stroke-miterlimit:4;stroke-dasharray:none;stroke-linejoin:round"
   inkscape:connector-curvature="0"
   id="path77"
   d="M 29.4,66.5 26.9,52.4 21,62.4 v 13.5 l 0.1,-0.1 v -1.1 c 3.2,-3 5.9,-5.7 8.3,-8.2 z" /><path
   style="fill:#388937;stroke:none;stroke-opacity:1;stroke-width:0;stroke-miterlimit:4;stroke-dasharray:none;stroke-linejoin:round"
   inkscape:connector-curvature="0"
   id="path79"
   d="m 26.9,52.4 2.5,14.1 c 1.8,-1.8 3.3,-3.5 4.7,-5.2 l -7.2,-8.9 z" /><path
   style="fill:#388937;stroke:none;stroke-opacity:1;stroke-width:0;stroke-miterlimit:4;stroke-dasharray:none;stroke-linejoin:round"
   inkscape:connector-curvature="0"
   id="path81"
   d="m 40.4,69.1 -2.2,-2.7 c -0.8,0.9 -1.6,1.8 -2.4,2.7 h 4.6 z" /><path
   style="fill:#318b36;stroke:none;stroke-opacity:1;stroke-width:0;stroke-miterlimit:4;stroke-dasharray:none;stroke-linejoin:round"
   inkscape:connector-curvature="0"
   id="path83"
   d="m 44.7,57.7 c -0.8,1.4 -1.8,2.9 -2.9,4.4 L 40.5,69.2 53.9,67 44.7,57.7 z" /><path
   style="fill:#468d36;stroke:none;stroke-opacity:1;stroke-width:0;stroke-miterlimit:4;stroke-dasharray:none;stroke-linejoin:round"
   inkscape:connector-curvature="0"
   id="path85"
   d="m 85.7,54.6 -5.4,-8.4 -2.1,9.5 c 1.4,1.3 2.6,3 3.2,5.1 l 1.6,1.6 2.7,-7.8 z" /><path
   style="fill:#74b757;stroke:none"
   d="m 85.7,54.6 -1.6,-9.7 -3.8,1.3 z"
   id="polygon87" /><path
   style="fill:#318b36;stroke:none"
   d="m 36.7,2.9 -8,4 15.2,0 z"
   id="polygon89" /><path
   style="fill:#459c35;stroke:none;stroke-opacity:1;stroke-width:0;stroke-miterlimit:4;stroke-dasharray:none;stroke-linejoin:round"
   inkscape:connector-curvature="0"
   id="path91"
   d="M 28.7,6.9 36.7,3 34,2.5 H 30 C 23.5,4.8 17.7,8.6 13,13.4 l -0.5,2.5 16.2,-9 z" /><path
   style="fill:#198137;stroke:none;stroke-opacity:1;stroke-width:0;stroke-miterlimit:4;stroke-dasharray:none;stroke-linejoin:round"
   inkscape:connector-curvature="0"
   id="path93"
   d="m 83,62.4 -1.6,-1.6 c 0.2,0.5 0.3,1 0.4,1.6 H 83 z" /><path
   style="fill:#198137;stroke:none;stroke-opacity:1;stroke-width:0;stroke-miterlimit:4;stroke-dasharray:none;stroke-linejoin:round"
   inkscape:connector-curvature="0"
   id="path95"
   d="M 71.5,62.4 H 74 c -0.2,-0.5 -0.5,-1 -0.8,-1.4 l -1.7,1.4 z" /><path
   style="fill:#85c283;stroke:none;stroke-opacity:1;stroke-width:0;stroke-miterlimit:4;stroke-dasharray:none;stroke-linejoin:round"
   inkscape:connector-curvature="0"
   id="path97"
   d="M 62.5,3.9 62,3.3 C 56.7,1.1 51,-0.1 44.9,-0.1 c -0.2,0 -0.4,0 -0.6,0 l 9.5,5.3 8.7,-1.3 z" /><path
   style="fill:#85c283;stroke:none;stroke-opacity:1;stroke-width:0;stroke-miterlimit:4;stroke-dasharray:none;stroke-linejoin:round"
   inkscape:connector-curvature="0"
   id="path99"
   d="m 89.2,37 -3.5,0.6 -1.6,7.3 1.6,9.7 4,-5.7 c 0.1,-1.3 0.2,-2.7 0.2,-4 0,-2.7 -0.2,-5.4 -0.7,-7.9 z" /><path
   style="fill:#a5ce9f;stroke:none;stroke-opacity:1;stroke-width:0;stroke-miterlimit:4;stroke-dasharray:none;stroke-linejoin:round"
   inkscape:connector-curvature="0"
   id="path101"
   d="M 85.7,37.6 89.2,37 C 88.5,33 87.3,29.3 85.6,25.7 l -3.2,1.1 3.3,10.8 z" /><path
   style="fill:#ddeacc;stroke:none;stroke-opacity:1;stroke-width:0;stroke-miterlimit:4;stroke-dasharray:none;stroke-linejoin:round"
   inkscape:connector-curvature="0"
   id="path103"
   d="m 82.5,26.8 3.2,-1.1 C 83.4,20.8 80.2,16.4 76.3,12.6 v 5.3 l 6.2,8.9 z" /><path
   style="fill:#b8d1b1;stroke:none;stroke-opacity:1;stroke-width:0;stroke-miterlimit:4;stroke-dasharray:none;stroke-linejoin:round"
   inkscape:connector-curvature="0"
   id="path105"
   d="M 76.3,17.9 V 12.6 C 72,8.5 66.9,5.2 61.3,3 l 5.4,7.9 9.6,7 z" /><path
   style="fill:#74b757;stroke:none;stroke-opacity:1;stroke-width:0;stroke-miterlimit:4;stroke-dasharray:none;stroke-linejoin:round"
   inkscape:connector-curvature="0"
   id="path107"
   d="m 34.7,2.6 3.8,-2.2 c -3,0.4 -5.9,1.2 -8.7,2.2 l 4.2,0 h 0.7 z" /><path
   style="fill:#175329;stroke:none;stroke-opacity:1;stroke-width:0;stroke-miterlimit:4;stroke-dasharray:none;stroke-linejoin:round"
   inkscape:connector-curvature="0"
   id="path109"
   d="m 12.4,15.9 -2.7,1.3 c -1.5,1.9 -2.9,4 -4.1,6.1 l 4.9,7.3 1.9,-14.7 z" /><path
   style="fill:#1f3f21;stroke:none;stroke-opacity:1;stroke-width:0;stroke-miterlimit:4;stroke-dasharray:none;stroke-linejoin:round"
   inkscape:connector-curvature="0"
   id="path111"
   d="m 12.9,13.4 c -1.2,1.2 -2.2,2.4 -3.3,3.7 l 2.7,-1.3 0.6,-2.4 z" /><path
   style="fill:#1c672f;stroke:none;stroke-opacity:1;stroke-width:0;stroke-miterlimit:4;stroke-dasharray:none;stroke-linejoin:round"
   inkscape:connector-curvature="0"
   id="path113"
   d="M 21.2,75.8 21,75.9 v 4.3 l 6.7,6.1 c 1.1,0.5 2.2,0.9 3.3,1.2 L 35.4,79 H 21.2 v -3.2 z" /><path
   style="fill:#1c672f;stroke:none;stroke-opacity:1;stroke-width:0;stroke-miterlimit:4;stroke-dasharray:none;stroke-linejoin:round"
   inkscape:connector-curvature="0"
   id="path115"
   d="m 38.6,72.7 1.8,-3.5 h -4.6 c -1.2,1.3 -2.4,2.6 -3.7,4 2,-0.2 4.5,-0.5 6.5,-0.5 z" /><path
   style="fill:#1d592b;stroke:none;stroke-opacity:1;stroke-width:0;stroke-miterlimit:4;stroke-dasharray:none;stroke-linejoin:round"
   inkscape:connector-curvature="0"
   id="path117"
   d="m 21.8,83.3 c 1.9,1.1 3.8,2.1 5.9,3 l -6.7,-6.1 0.8,3.1 z" /><path
   style="fill:#407d33;stroke:none;stroke-opacity:1;stroke-width:0;stroke-miterlimit:4;stroke-dasharray:none;stroke-linejoin:round"
   inkscape:connector-curvature="0"
   id="path119"
   d="m 61.5,86.7 c 0.1,-0.1 0.3,-0.1 0.4,-0.2 l 0.8,-6.8 -0.3,-0.5 C 61.5,79 60.7,78.7 60,78.4 l 1.5,8.3 z" /><path
   style="fill:#29602c;stroke:none;stroke-opacity:1;stroke-width:0;stroke-miterlimit:4;stroke-dasharray:none;stroke-linejoin:round"
   inkscape:connector-curvature="0"
   id="path121"
   d="M 49.1,75.5 V 79 h -2 L 52,89.3 c 3.3,-0.5 6.4,-1.4 9.4,-2.6 L 59.8,78.4 C 57.7,77.5 55.9,76.3 54.4,75 l -5.3,0.5 z" /><path
   style="fill:#5aa052;stroke:none;stroke-opacity:1;stroke-width:0;stroke-miterlimit:4;stroke-dasharray:none;stroke-linejoin:round"
   inkscape:connector-curvature="0"
   id="path123"
   d="m 80.7,72.1 c 3.2,-4.2 5.7,-8.9 7.3,-14 l -2.2,-3.5 -3.6,10.2 c 0,0.3 0,0.5 0,0.8 0,2.5 -0.6,4.7 -1.5,6.5 z" /><path
   style="fill:#509434;stroke:none;stroke-opacity:1;stroke-width:0;stroke-miterlimit:4;stroke-dasharray:none;stroke-linejoin:round"
   inkscape:connector-curvature="0"
   id="path125"
   d="m 46.3,72.7 1,-4.6 -6.9,1.1 -1.8,3.5 c 0.1,0 0.2,0 0.3,0 h 7.4 z" /><path
   style="fill:#509434;stroke:none"
   d="M 35.4,79 34,81.7 39.3,79 z"
   id="polygon127" /><path
   style="fill:#447f34;stroke:none;stroke-opacity:1;stroke-width:0;stroke-miterlimit:4;stroke-dasharray:none;stroke-linejoin:round"
   inkscape:connector-curvature="0"
   id="path129"
   d="M 83,62.4 H 81.8 C 82,63.2 82,64 82.1,64.9 L 83,62.4 z" /><path
   style="fill:#447f34;stroke:none;stroke-opacity:1;stroke-width:0;stroke-miterlimit:4;stroke-dasharray:none;stroke-linejoin:round"
   inkscape:connector-curvature="0"
   id="path131"
   d="m 74,62.4 h -2.5 l 2.6,6.6 c 0.4,-0.9 0.6,-2 0.6,-3.2 -0.1,-1.3 -0.3,-2.4 -0.7,-3.4 z" /><path
   style="fill:#2d642e;stroke:none"
   d="M 4,53.9 21,80.2 21,62.4 z"
   id="polygon133" /><path
   style="fill:#387330;stroke:none;stroke-opacity:1;stroke-width:0;stroke-miterlimit:4;stroke-dasharray:none;stroke-linejoin:round"
   inkscape:connector-curvature="0"
   id="path135"
   d="m 56.2,70.3 -2.3,-3.3 -6.6,1 -1,4.6 h 2.8 v 2.9 L 54.5,75 c -0.3,-0.3 -0.7,-0.6 -1,-0.9 l 2.7,-3.8 z" /><path
   style="fill:#235e2e;stroke:none"
   d="M 19.1,52.9 4,53.9 21,62.4 z"
   id="polygon137" /><path
   style="fill:#264322;stroke:none;stroke-opacity:1;stroke-width:0;stroke-miterlimit:4;stroke-dasharray:none;stroke-linejoin:round"
   inkscape:connector-curvature="0"
   id="path139"
   d="M 4,53.8 1,54 c 1.1,5.4 3.2,10.4 6,14.8 L 16.2,72.7 4,53.8 z" /><path
   style="fill:#235e2e;stroke:none;stroke-opacity:1;stroke-width:0;stroke-miterlimit:4;stroke-dasharray:none;stroke-linejoin:round"
   inkscape:connector-curvature="0"
   id="path141"
   d="m 7.1,68.9 c 1.7,2.6 3.6,5 5.7,7.3 l 3.4,-3.4 -9.1,-3.9 z" /><path
   style="fill:#1f3a20;stroke:none;stroke-opacity:1;stroke-width:0;stroke-miterlimit:4;stroke-dasharray:none;stroke-linejoin:round"
   inkscape:connector-curvature="0"
   id="path143"
   d="M 10.5,30.6 5.6,23.3 c -2.5,4.5 -4.2,9.5 -5,14.8 l 5.8,3.2 4.1,-10.7 z" /><path
   style="fill:#5f9a33;stroke:none;stroke-opacity:1;stroke-width:0;stroke-miterlimit:4;stroke-dasharray:none;stroke-linejoin:round"
   inkscape:connector-curvature="0"
   id="path145"
   d="m 68.2,73.6 -4.6,-2.1 -0.2,1.8 c 1,0.3 2.1,0.5 3.3,0.5 0.5,-0.1 1,-0.1 1.5,-0.2 z" /><path
   style="fill:#5f9a33;stroke:none;stroke-opacity:1;stroke-width:0;stroke-miterlimit:4;stroke-dasharray:none;stroke-linejoin:round"
   inkscape:connector-curvature="0"
   id="path147"
   d="m 62.7,79.3 -0.8,7.2 c 5.3,-2.1 10,-5.2 14,-9.1 -2.4,1.5 -5.3,2.3 -8.3,2.3 -1.8,0.1 -3.4,-0.1 -4.9,-0.4 z" /><path
   style="fill:#407d33;stroke:none;stroke-opacity:1;stroke-width:0;stroke-miterlimit:4;stroke-dasharray:none;stroke-linejoin:round"
   inkscape:connector-curvature="0"
   id="path149"
   d="m 0.6,38.1 c -0.3,2.2 -0.5,4.5 -0.5,6.8 0,3.2 0.3,6.2 0.9,9.2 L 26.9,52.4 0.6,38.1 z" /><path
   style="fill:#29602c;stroke:none"
   d="M 26.9,52.4 10.5,30.4 6.4,41.2 z"
   id="polygon151" /><path
   style="fill:#1a8037;stroke:none;stroke-opacity:1;stroke-width:0;stroke-miterlimit:4;stroke-dasharray:none;stroke-linejoin:round"
   inkscape:connector-curvature="0"
   id="path153"
   d="M 74.1,69 71.5,62.4 53.9,67 68.2,73.6 c 2.8,-0.4 4.9,-2 5.9,-4.6 z" /><path
   style="fill:#b2cd7a;stroke:none;stroke-opacity:1;stroke-width:0;stroke-miterlimit:4;stroke-dasharray:none;stroke-linejoin:round"
   inkscape:connector-curvature="0"
   id="path155"
   d="m 85.7,54.6 2.2,3.5 c 0.9,-2.9 1.5,-6 1.8,-9.2 l -4,5.7 z" /><path
   style="fill:#73a43d;stroke:none;stroke-opacity:1;stroke-width:0;stroke-miterlimit:4;stroke-dasharray:none;stroke-linejoin:round"
   inkscape:connector-curvature="0"
   id="path157"
   d="m 62.6,79.7 0,-0.4 c -0.1,0 -0.3,-0.1 -0.4,-0.1 l 0.4,0.5 z" /><path
   style="fill:#73a43d;stroke:none;stroke-opacity:1;stroke-width:0;stroke-miterlimit:4;stroke-dasharray:none;stroke-linejoin:round"
   inkscape:connector-curvature="0"
   id="path159"
   d="m 63.4,73.3 0.2,-1.8 -9.7,-4.5 2.3,3.4 0.7,-1 c 1.8,1.6 3.9,3.1 6.5,3.9 z" /><path
   style="fill:#1f3a20;stroke:none;stroke-opacity:1;stroke-width:0;stroke-miterlimit:4;stroke-dasharray:none;stroke-linejoin:round"
   inkscape:connector-curvature="0"
   id="path161"
   d="m 16.2,72.7 -3.4,3.4 c 2.7,2.8 5.7,5.2 9,7.2 L 21,80.2 16.2,72.7 z" /><path
   style="fill:#2c4c28;stroke:none;stroke-opacity:1;stroke-width:0;stroke-miterlimit:4;stroke-dasharray:none;stroke-linejoin:round"
   inkscape:connector-curvature="0"
   id="path163"
   d="m 47.1,79 h -7.8 l -5.3,2.7 -3,5.9 c 2.7,0.9 5.5,1.5 8.4,1.9 l 4.8,0.3 c 0.3,0 0.5,0 0.8,0 2.4,0 4.7,-0.2 7,-0.5 L 47.1,79 z" /><path
   style="fill:none;stroke:none;stroke-opacity:1;stroke-width:0;stroke-miterlimit:4;stroke-dasharray:none;stroke-linejoin:round"
   inkscape:connector-curvature="0"
   id="path165"
   d="M 21.2,74.7 C 32.6,63.6 39.8,56.3 39.8,50 c 0,-4.3 -2.4,-7.1 -6.8,-7.1 -3.2,0 -5.8,2.1 -8,4.6 l -4.2,-4.2 c 3.8,-4 7.5,-6.4 13.2,-6.4 7.9,0 13,5 13,12.7 0,7.3 -6.8,14.9 -15,23.5 2.1,-0.2 4.9,-0.5 6.9,-0.5 H 49 V 79 H 21.2 v -4.3 z" /><path
   style="fill:none;stroke:none;stroke-opacity:1;stroke-width:0;stroke-miterlimit:4;stroke-dasharray:none;stroke-linejoin:round"
   inkscape:connector-curvature="0"
   id="path167"
   d="M 21.2,74.7 C 32.6,63.6 39.8,56.3 39.8,50 c 0,-4.3 -2.4,-7.1 -6.8,-7.1 -3.2,0 -5.8,2.1 -8,4.6 l -4.2,-4.2 c 3.8,-4 7.5,-6.4 13.2,-6.4 7.9,0 13,5 13,12.7 0,7.3 -6.8,14.9 -15,23.5 2.1,-0.2 4.9,-0.5 6.9,-0.5 H 49 V 79 H 21.2 v -4.3 z" /><path
   style="fill:none;stroke:none;stroke-opacity:1;stroke-width:0;stroke-miterlimit:4;stroke-dasharray:none;stroke-linejoin:round"
   inkscape:connector-curvature="0"
   id="path169"
   d="m 57,69.3 c 2.5,2.3 5.5,4.4 9.7,4.4 4.6,0 8,-2.9 8,-7.9 0,-4.9 -3.1,-7.7 -7.6,-7.7 -2.7,0 -4.2,0.7 -6.6,2.3 L 56.9,58.1 58.1,37.7 H 80.2 V 44 H 64.6 l -0.8,10 c 1.8,-0.8 3.3,-1.4 5.5,-1.4 7.1,0 13,4 13,12.9 0,9 -6.9,14.2 -14.5,14.2 -6.7,0 -11,-2.7 -14.1,-5.7 L 57,69.3 z" /><path
   style="fill:none;stroke:none;stroke-opacity:1;stroke-width:0;stroke-miterlimit:4;stroke-dasharray:none;stroke-linejoin:round"
   inkscape:connector-curvature="0"
   id="path171"
   d="m 57,69.3 c 2.5,2.3 5.5,4.4 9.7,4.4 4.6,0 8,-2.9 8,-7.9 0,-4.9 -3.1,-7.7 -7.6,-7.7 -2.7,0 -4.2,0.7 -6.6,2.3 L 56.9,58.1 58.1,37.7 H 80.2 V 44 H 64.6 l -0.8,10 c 1.8,-0.8 3.3,-1.4 5.5,-1.4 7.1,0 13,4 13,12.9 0,9 -6.9,14.2 -14.5,14.2 -6.7,0 -11,-2.7 -14.1,-5.7 L 57,69.3 z" /><g
   id="g173"
   style="stroke:none;stroke-opacity:1;stroke-width:0;stroke-miterlimit:4;stroke-dasharray:none;stroke-linejoin:round">
		<path
   style="fill:#1b6f34"
   d="M 57.3,51.1 58,38.7 42.9,38.7 56,51.1 z"
   id="polygon175" />
		<path
   style="fill:#1b6f34"
   d="m 64,51.1 5,0 -4.5,-6.7 z"
   id="polygon177" />
	</g>
</svg>